{
  "source": "C:\\Users\\Peter\\Desktop\\stuff\\MIUN\\quantitative_research\\video_compression\\videos\\BVI-HD\\BVI-HD_CDVL_videos\\ORIG\\Music_1920x1080_30fps.mp4",
  "output": "C:\\Users\\Peter\\Desktop\\stuff\\MIUN\\quantitative_research\\video_compression\\compressed_videos\\BVI-HD\\hevc\\2\\Music_1920x1080_30fps_hevc.mp4",
  "codec": "hevc",
  "ok": "Input #0, mov,mp4,m4a,3gp,3g2,mj2, from 'C:\\Users\\Peter\\Desktop\\stuff\\MIUN\\quantitative_research\\video_compression\\videos\\BVI-HD\\BVI-HD_CDVL_videos\\ORIG\\Music_1920x1080_30fps.mp4':\n  Metadata:\n    major_brand     : isom\n    minor_version   : 512\n    compatible_brands: isomiso2avc1mp41\n    encoder         : Lavf54.28.101\n  Duration: 00:00:05.00, start: 0.000000, bitrate: 192710 kb/s\n  Stream #0:0[0x1](und): Video: h264 (High 4:4:4 Predictive) (avc1 / 0x31637661), yuv420p(progressive), 1920x1080, 192707 kb/s, 30 fps, 30 tbr, 30 tbn (default)\n    Metadata:\n      handler_name    : VideoHandler\n      vendor_id       : [0][0][0][0]\n[out#0/mp4 @ 000002038d2a3c80] Codec AVOption b:a (set bitrate (in bits/s)) has not been used for any stream. The most likely reason is either wrong type (e.g. a video option with no video streams) or that it is a private option of some decoder which was not actually used for any stream.\nStream mapping:\n  Stream #0:0 -> #0:0 (h264 (native) -> hevc (libx265))\nPress [q] to stop, [?] for help\n[libx265 @ 000002038ceb0140] Unknown option: \"aq-mode.\nx265 [info]: HEVC encoder version 4.1+190-8f11c33ac\nx265 [info]: build info [Windows][GCC 15.1.0][64 bit] 10bit\nx265 [info]: using cpu capabilities: MMX2 SSE2Fast LZCNT SSSE3 SSE4.2 AVX FMA3 BMI2 AVX2\nx265 [info]: Main 10 profile, Level-4 (Main tier)\nx265 [info]: Thread pool created using 12 threads\nx265 [info]: Slices                              : 1\nx265 [info]: frame threads / pool features       : 3 / wpp(17 rows)\nx265 [info]: Coding QT: max CU size, min CU size : 64 / 8\nx265 [info]: Residual QT: max TU size, max depth : 32 / 1 inter / 1 intra\nx265 [info]: ME / range / subpel / merge         : star / 57 / 3 / 3\nx265 [info]: Keyframe min / max / scenecut / bias  : 25 / 250 / 40 / 5.00 \nx265 [info]: Lookahead / bframes / badapt        : 25 / 4 / 2\nx265 [info]: b-pyramid / weightp / weightb       : 1 / 1 / 0\nx265 [info]: References / ref-limit  cu / depth  : 4 / on / on\nx265 [info]: AQ: mode / str / qg-size / cu-tree  : 2 / 1.0 / 32 / 1\nx265 [info]: Rate Control / qCompress            : ABR-2000 kbps / 0.60\nx265 [info]: VBV/HRD buffer / max-rate / init    : 2000 / 2000 / 0.750\nx265 [info]: tools: rect limit-modes rd=4 psy-rd=2.00 rdoq=2 psy-rdoq=1.00\nx265 [info]: tools: rskip mode=1 signhide tmvp strong-intra-smoothing lslices=4\nx265 [info]: tools: deblock sao dhdr10-info\nOutput #0, mp4, to 'C:\\Users\\Peter\\Desktop\\stuff\\MIUN\\quantitative_research\\video_compression\\compressed_videos\\BVI-HD\\hevc\\2\\Music_1920x1080_30fps_hevc.mp4':\n  Metadata:\n    major_brand     : isom\n    minor_version   : 512\n    compatible_brands: isomiso2avc1mp41\n    encoder         : Lavf62.3.100\n  Stream #0:0(und): Video: hevc (hev1 / 0x31766568), yuv420p10le(tv, progressive), 1920x1080, q=2-31, 2000 kb/s, 30 fps, 15360 tbn (default)\n    Metadata:\n      encoder         : Lavc62.11.100 libx265\n      handler_name    : VideoHandler\n      vendor_id       : [0][0][0][0]\n    Side data:\n      cpb: bitrate max/min/avg: 2000000/0/2000000 buffer size: 2000000 vbv_delay: N/A\nframe=    0 fps=0.0 q=0.0 size=       0KiB time=N/A bitrate=N/A speed=N/A elapsed=0:00:00.51    \nframe=    0 fps=0.0 q=0.0 size=       0KiB time=N/A bitrate=N/A speed=N/A elapsed=0:00:01.07    \nframe=    0 fps=0.0 q=0.0 size=       0KiB time=N/A bitrate=N/A speed=N/A elapsed=0:00:01.58    \nframe=    0 fps=0.0 q=0.0 size=       0KiB time=N/A bitrate=N/A speed=N/A elapsed=0:00:02.11    \nframe=    0 fps=0.0 q=0.0 size=       0KiB time=N/A bitrate=N/A speed=N/A elapsed=0:00:02.65    \nframe=    0 fps=0.0 q=0.0 size=       0KiB time=N/A bitrate=N/A speed=N/A elapsed=0:00:03.20    \nframe=    0 fps=0.0 q=0.0 size=       0KiB time=N/A bitrate=N/A speed=N/A elapsed=0:00:03.73    \nframe=    0 fps=0.0 q=0.0 size=       0KiB time=N/A bitrate=N/A speed=N/A elapsed=0:00:04.25    \nframe=    0 fps=0.0 q=0.0 size=       0KiB time=N/A bitrate=N/A speed=N/A elapsed=0:00:04.77    \nframe=    0 fps=0.0 q=0.0 size=       0KiB time=N/A bitrate=N/A speed=N/A elapsed=0:00:05.28    \nframe=    0 fps=0.0 q=0.0 size=       0KiB time=N/A bitrate=N/A speed=N/A elapsed=0:00:05.81    \nframe=    0 fps=0.0 q=0.0 size=       0KiB time=N/A bitrate=N/A speed=N/A elapsed=0:00:06.33    \nframe=    0 fps=0.0 q=0.0 size=       0KiB time=N/A bitrate=N/A speed=N/A elapsed=0:00:06.86    \nframe=    1 fps=0.1 q=38.6 size=       0KiB time=-00:00:00.03 bitrate=N/A speed=N/A elapsed=0:00:07.38    \nframe=    1 fps=0.1 q=38.6 size=       0KiB time=-00:00:00.03 bitrate=N/A speed=N/A elapsed=0:00:07.90    \nframe=    1 fps=0.1 q=38.6 size=       0KiB time=-00:00:00.03 bitrate=N/A speed=N/A elapsed=0:00:08.41    \nframe=    1 fps=0.1 q=38.6 size=       0KiB time=-00:00:00.03 bitrate=N/A speed=N/A elapsed=0:00:08.95    \nframe=    2 fps=0.2 q=39.3 size=       0KiB time=00:00:00.00 bitrate=N/A speed=   0x elapsed=0:00:09.47    \nframe=    2 fps=0.2 q=39.3 size=       0KiB time=00:00:00.00 bitrate=N/A speed=   0x elapsed=0:00:10.00    \nframe=    2 fps=0.2 q=39.3 size=       0KiB time=00:00:00.00 bitrate=N/A speed=   0x elapsed=0:00:10.53    \nframe=    2 fps=0.2 q=39.3 size=       0KiB time=00:00:00.00 bitrate=N/A speed=   0x elapsed=0:00:11.05    \nframe=    3 fps=0.3 q=41.2 size=       0KiB time=00:00:00.03 bitrate=  10.6kbits/s speed=0.00288x elapsed=0:00:11.56    \nframe=    3 fps=0.2 q=41.2 size=       0KiB time=00:00:00.03 bitrate=  10.6kbits/s speed=0.00276x elapsed=0:00:12.08    \nframe=    3 fps=0.2 q=41.2 size=       0KiB time=00:00:00.03 bitrate=  10.6kbits/s speed=0.00265x elapsed=0:00:12.60    \nframe=    3 fps=0.2 q=41.2 size=       0KiB time=00:00:00.03 bitrate=  10.6kbits/s speed=0.00254x elapsed=0:00:13.12    \nframe=    3 fps=0.2 q=41.2 size=       0KiB time=00:00:00.03 bitrate=  10.6kbits/s speed=0.00244x elapsed=0:00:13.65    \nframe=    4 fps=0.3 q=36.2 size=       0KiB time=00:00:00.06 bitrate=   5.3kbits/s speed=0.00471x elapsed=0:00:14.16    \nframe=    4 fps=0.3 q=36.2 size=       0KiB time=00:00:00.06 bitrate=   5.3kbits/s speed=0.00454x elapsed=0:00:14.68    \nframe=    4 fps=0.3 q=36.2 size=       0KiB time=00:00:00.06 bitrate=   5.3kbits/s speed=0.00438x elapsed=0:00:15.21    \nframe=    5 fps=0.3 q=39.0 size=       0KiB time=00:00:00.10 bitrate=   3.5kbits/s speed=0.00636x elapsed=0:00:15.71    \nframe=    5 fps=0.3 q=39.0 size=       0KiB time=00:00:00.10 bitrate=   3.5kbits/s speed=0.00616x elapsed=0:00:16.23    \nframe=    5 fps=0.3 q=39.0 size=       0KiB time=00:00:00.10 bitrate=   3.5kbits/s speed=0.00597x elapsed=0:00:16.74    \nframe=    5 fps=0.3 q=39.0 size=       0KiB time=00:00:00.10 bitrate=   3.5kbits/s speed=0.00579x elapsed=0:00:17.26    \nframe=    5 fps=0.3 q=39.0 size=       0KiB time=00:00:00.10 bitrate=   3.5kbits/s speed=0.00562x elapsed=0:00:17.79    \nframe=    5 fps=0.3 q=39.0 size=       0KiB time=00:00:00.10 bitrate=   3.5kbits/s speed=0.00546x elapsed=0:00:18.32    \nframe=    5 fps=0.3 q=39.0 size=       0KiB time=00:00:00.10 bitrate=   3.5kbits/s speed=0.00531x elapsed=0:00:18.84    \nframe=    5 fps=0.3 q=39.0 size=       0KiB time=00:00:00.10 bitrate=   3.5kbits/s speed=0.00516x elapsed=0:00:19.36    \nframe=    6 fps=0.3 q=33.2 size=       0KiB time=00:00:00.13 bitrate=   2.6kbits/s speed=0.0067x elapsed=0:00:19.89    \nframe=    6 fps=0.3 q=33.2 size=       0KiB time=00:00:00.13 bitrate=   2.6kbits/s speed=0.00653x elapsed=0:00:20.42    \nframe=    6 fps=0.3 q=33.2 size=       0KiB time=00:00:00.13 bitrate=   2.6kbits/s speed=0.00637x elapsed=0:00:20.94    \nframe=    6 fps=0.3 q=33.2 size=       0KiB time=00:00:00.13 bitrate=   2.6kbits/s speed=0.00621x elapsed=0:00:21.45    \nframe=    7 fps=0.3 q=36.0 size=       0KiB time=00:00:00.16 bitrate=   2.1kbits/s speed=0.00758x elapsed=0:00:21.99    \nframe=    7 fps=0.3 q=36.0 size=       0KiB time=00:00:00.16 bitrate=   2.1kbits/s speed=0.0074x elapsed=0:00:22.52    \nframe=    7 fps=0.3 q=36.0 size=       0KiB time=00:00:00.16 bitrate=   2.1kbits/s speed=0.00723x elapsed=0:00:23.05    \nframe=    7 fps=0.3 q=36.0 size=       0KiB time=00:00:00.16 bitrate=   2.1kbits/s speed=0.00707x elapsed=0:00:23.56    \nframe=    7 fps=0.3 q=36.0 size=       0KiB time=00:00:00.16 bitrate=   2.1kbits/s speed=0.00692x elapsed=0:00:24.09    \nframe=    7 fps=0.3 q=36.0 size=       0KiB time=00:00:00.16 bitrate=   2.1kbits/s speed=0.00677x elapsed=0:00:24.60    \nframe=    7 fps=0.3 q=36.0 size=       0KiB time=00:00:00.16 bitrate=   2.1kbits/s speed=0.00663x elapsed=0:00:25.12    \nframe=    8 fps=0.3 q=32.7 size=       0KiB time=00:00:00.20 bitrate=   1.8kbits/s speed=0.0078x elapsed=0:00:25.65    \nframe=    8 fps=0.3 q=32.7 size=       0KiB time=00:00:00.20 bitrate=   1.8kbits/s speed=0.00764x elapsed=0:00:26.17    \nframe=    8 fps=0.3 q=32.7 size=       0KiB time=00:00:00.20 bitrate=   1.8kbits/s speed=0.00749x elapsed=0:00:26.69    \nframe=    8 fps=0.3 q=32.7 size=       0KiB time=00:00:00.20 bitrate=   1.8kbits/s speed=0.00735x elapsed=0:00:27.21    \nframe=    8 fps=0.3 q=32.7 size=       0KiB time=00:00:00.20 bitrate=   1.8kbits/s speed=0.00721x elapsed=0:00:27.73    \nframe=    8 fps=0.3 q=32.7 size=       0KiB time=00:00:00.20 bitrate=   1.8kbits/s speed=0.00708x elapsed=0:00:28.26    \nframe=    9 fps=0.3 q=34.6 size=       0KiB time=00:00:00.23 bitrate=   1.5kbits/s speed=0.0081x elapsed=0:00:28.80    \nframe=    9 fps=0.3 q=34.6 size=       0KiB time=00:00:00.23 bitrate=   1.5kbits/s speed=0.00796x elapsed=0:00:29.32    \nframe=    9 fps=0.3 q=34.6 size=       0KiB time=00:00:00.23 bitrate=   1.5kbits/s speed=0.00781x elapsed=0:00:29.85    \nframe=   10 fps=0.3 q=35.4 size=       0KiB time=00:00:00.26 bitrate=   1.3kbits/s speed=0.00877x elapsed=0:00:30.39    \nframe=   10 fps=0.3 q=35.4 size=       0KiB time=00:00:00.26 bitrate=   1.3kbits/s speed=0.00861x elapsed=0:00:30.97    \nframe=   10 fps=0.3 q=35.4 size=       0KiB time=00:00:00.26 bitrate=   1.3kbits/s speed=0.00846x elapsed=0:00:31.53    \nframe=   10 fps=0.3 q=35.4 size=       0KiB time=00:00:00.26 bitrate=   1.3kbits/s speed=0.00832x elapsed=0:00:32.06    \nframe=   11 fps=0.3 q=32.9 size=       0KiB time=00:00:00.30 bitrate=   1.2kbits/s speed=0.00921x elapsed=0:00:32.58    \nframe=   11 fps=0.3 q=32.9 size=       0KiB time=00:00:00.30 bitrate=   1.2kbits/s speed=0.00906x elapsed=0:00:33.10    \nframe=   12 fps=0.4 q=33.9 size=       0KiB time=00:00:00.33 bitrate=   1.1kbits/s speed=0.00991x elapsed=0:00:33.63    \nframe=   12 fps=0.4 q=33.9 size=       0KiB time=00:00:00.33 bitrate=   1.1kbits/s speed=0.00976x elapsed=0:00:34.15    \nframe=   12 fps=0.3 q=33.9 size=       0KiB time=00:00:00.33 bitrate=   1.1kbits/s speed=0.00961x elapsed=0:00:34.67    \nframe=   12 fps=0.3 q=33.9 size=       0KiB time=00:00:00.33 bitrate=   1.1kbits/s speed=0.00947x elapsed=0:00:35.20    \nframe=   12 fps=0.3 q=33.9 size=       0KiB time=00:00:00.33 bitrate=   1.1kbits/s speed=0.00933x elapsed=0:00:35.73    \nframe=   12 fps=0.3 q=33.9 size=       0KiB time=00:00:00.33 bitrate=   1.1kbits/s speed=0.0092x elapsed=0:00:36.23    \nframe=   12 fps=0.3 q=33.9 size=       0KiB time=00:00:00.33 bitrate=   1.1kbits/s speed=0.00907x elapsed=0:00:36.76    \nframe=   12 fps=0.3 q=33.9 size=       0KiB time=00:00:00.33 bitrate=   1.1kbits/s speed=0.00894x elapsed=0:00:37.28    \nframe=   13 fps=0.3 q=35.4 size=       0KiB time=00:00:00.36 bitrate=   1.0kbits/s speed=0.0097x elapsed=0:00:37.80    \nframe=   13 fps=0.3 q=35.4 size=       0KiB time=00:00:00.36 bitrate=   1.0kbits/s speed=0.00957x elapsed=0:00:38.32    \nframe=   13 fps=0.3 q=35.4 size=       0KiB time=00:00:00.36 bitrate=   1.0kbits/s speed=0.00944x elapsed=0:00:38.84    \nframe=   13 fps=0.3 q=35.4 size=       0KiB time=00:00:00.36 bitrate=   1.0kbits/s speed=0.00931x elapsed=0:00:39.38    \nframe=   13 fps=0.3 q=35.4 size=       0KiB time=00:00:00.36 bitrate=   1.0kbits/s speed=0.00919x elapsed=0:00:39.91    \nframe=   14 fps=0.3 q=34.7 size=       0KiB time=00:00:00.40 bitrate=   0.9kbits/s speed=0.00989x elapsed=0:00:40.43    \nframe=   14 fps=0.3 q=34.7 size=       0KiB time=00:00:00.40 bitrate=   0.9kbits/s speed=0.00977x elapsed=0:00:40.95    \nframe=   14 fps=0.3 q=34.7 size=       0KiB time=00:00:00.40 bitrate=   0.9kbits/s speed=0.00964x elapsed=0:00:41.47    \nframe=   14 fps=0.3 q=34.7 size=       0KiB time=00:00:00.40 bitrate=   0.9kbits/s speed=0.00953x elapsed=0:00:41.98    \nframe=   14 fps=0.3 q=34.7 size=       0KiB time=00:00:00.40 bitrate=   0.9kbits/s speed=0.00941x elapsed=0:00:42.50    \nframe=   14 fps=0.3 q=34.7 size=       0KiB time=00:00:00.40 bitrate=   0.9kbits/s speed=0.0093x elapsed=0:00:43.01    \nframe=   14 fps=0.3 q=34.7 size=       0KiB time=00:00:00.40 bitrate=   0.9kbits/s speed=0.00919x elapsed=0:00:43.53    \nframe=   14 fps=0.3 q=34.7 size=       0KiB time=00:00:00.40 bitrate=   0.9kbits/s speed=0.00908x elapsed=0:00:44.05    \nframe=   15 fps=0.3 q=32.2 size=       0KiB time=00:00:00.43 bitrate=   0.8kbits/s speed=0.00972x elapsed=0:00:44.56    \nframe=   15 fps=0.3 q=32.2 size=       0KiB time=00:00:00.43 bitrate=   0.8kbits/s speed=0.00961x elapsed=0:00:45.08    \nframe=   15 fps=0.3 q=32.2 size=       0KiB time=00:00:00.43 bitrate=   0.8kbits/s speed=0.0095x elapsed=0:00:45.60    \nframe=   16 fps=0.3 q=34.7 size=       0KiB time=00:00:00.46 bitrate=   0.8kbits/s speed=0.0101x elapsed=0:00:46.12    \nframe=   16 fps=0.3 q=34.7 size=       0KiB time=00:00:00.46 bitrate=   0.8kbits/s speed=0.01x elapsed=0:00:46.64    \nframe=   16 fps=0.3 q=34.7 size=       0KiB time=00:00:00.46 bitrate=   0.8kbits/s speed=0.00989x elapsed=0:00:47.16    \nframe=   16 fps=0.3 q=34.7 size=       0KiB time=00:00:00.46 bitrate=   0.8kbits/s speed=0.00979x elapsed=0:00:47.68    \nframe=   16 fps=0.3 q=34.7 size=       0KiB time=00:00:00.46 bitrate=   0.8kbits/s speed=0.00968x elapsed=0:00:48.21    \nframe=   17 fps=0.3 q=31.2 size=       0KiB time=00:00:00.50 bitrate=   0.7kbits/s speed=0.0103x elapsed=0:00:48.73    \nframe=   17 fps=0.3 q=31.2 size=       0KiB time=00:00:00.50 bitrate=   0.7kbits/s speed=0.0102x elapsed=0:00:49.25    \nframe=   17 fps=0.3 q=31.2 size=       0KiB time=00:00:00.50 bitrate=   0.7kbits/s speed=0.01x elapsed=0:00:49.78    \nframe=   17 fps=0.3 q=31.2 size=       0KiB time=00:00:00.50 bitrate=   0.7kbits/s speed=0.00994x elapsed=0:00:50.29    \nframe=   18 fps=0.4 q=34.3 size=       0KiB time=00:00:00.53 bitrate=   0.7kbits/s speed=0.0105x elapsed=0:00:50.82    \nframe=   18 fps=0.4 q=34.3 size=       0KiB time=00:00:00.53 bitrate=   0.7kbits/s speed=0.0104x elapsed=0:00:51.33    \nframe=   18 fps=0.3 q=34.3 size=       0KiB time=00:00:00.53 bitrate=   0.7kbits/s speed=0.0103x elapsed=0:00:51.89    \nframe=   18 fps=0.3 q=34.3 size=       0KiB time=00:00:00.53 bitrate=   0.7kbits/s speed=0.0102x elapsed=0:00:52.51    \nframe=   18 fps=0.3 q=34.3 size=       0KiB time=00:00:00.53 bitrate=   0.7kbits/s speed=0.0101x elapsed=0:00:53.05    \nframe=   18 fps=0.3 q=34.3 size=       0KiB time=00:00:00.53 bitrate=   0.7kbits/s speed=0.00995x elapsed=0:00:53.60    \nframe=   18 fps=0.3 q=34.3 size=       0KiB time=00:00:00.53 bitrate=   0.7kbits/s speed=0.00985x elapsed=0:00:54.13    \nframe=   18 fps=0.3 q=34.3 size=       0KiB time=00:00:00.53 bitrate=   0.7kbits/s speed=0.00976x elapsed=0:00:54.65    \nframe=   18 fps=0.3 q=34.3 size=       0KiB time=00:00:00.53 bitrate=   0.7kbits/s speed=0.00966x elapsed=0:00:55.18    \nframe=   19 fps=0.3 q=31.8 size=       0KiB time=00:00:00.56 bitrate=   0.6kbits/s speed=0.0102x elapsed=0:00:55.70    \nframe=   19 fps=0.3 q=31.8 size=       0KiB time=00:00:00.56 bitrate=   0.6kbits/s speed=0.0101x elapsed=0:00:56.24    \nframe=   19 fps=0.3 q=31.8 size=       0KiB time=00:00:00.56 bitrate=   0.6kbits/s speed=0.00998x elapsed=0:00:56.78    \nframe=   19 fps=0.3 q=31.8 size=       0KiB time=00:00:00.56 bitrate=   0.6kbits/s speed=0.00989x elapsed=0:00:57.29    \nframe=   19 fps=0.3 q=31.8 size=       0KiB time=00:00:00.56 bitrate=   0.6kbits/s speed=0.0098x elapsed=0:00:57.81    \nframe=   19 fps=0.3 q=31.8 size=       0KiB time=00:00:00.56 bitrate=   0.6kbits/s speed=0.00971x elapsed=0:00:58.33    \nframe=   20 fps=0.3 q=31.2 size=       0KiB time=00:00:00.60 bitrate=   0.6kbits/s speed=0.0102x elapsed=0:00:58.87    \nframe=   20 fps=0.3 q=31.2 size=       0KiB time=00:00:00.60 bitrate=   0.6kbits/s speed=0.0101x elapsed=0:00:59.39    \nframe=   20 fps=0.3 q=31.2 size=       0KiB time=00:00:00.60 bitrate=   0.6kbits/s speed=0.01x elapsed=0:00:59.91    \nframe=   20 fps=0.3 q=31.2 size=       0KiB time=00:00:00.60 bitrate=   0.6kbits/s speed=0.00993x elapsed=0:01:00.43    \nframe=   20 fps=0.3 q=31.2 size=       0KiB time=00:00:00.60 bitrate=   0.6kbits/s speed=0.00984x elapsed=0:01:00.98    \nframe=   20 fps=0.3 q=31.2 size=       0KiB time=00:00:00.60 bitrate=   0.6kbits/s speed=0.00976x elapsed=0:01:01.50    \nframe=   20 fps=0.3 q=31.2 size=       0KiB time=00:00:00.60 bitrate=   0.6kbits/s speed=0.00967x elapsed=0:01:02.02    \nframe=   21 fps=0.3 q=34.2 size=       0KiB time=00:00:00.63 bitrate=   0.6kbits/s speed=0.0101x elapsed=0:01:02.53    \nframe=   21 fps=0.3 q=34.2 size=       0KiB time=00:00:00.63 bitrate=   0.6kbits/s speed=0.01x elapsed=0:01:03.06    \nframe=   21 fps=0.3 q=34.2 size=       0KiB time=00:00:00.63 bitrate=   0.6kbits/s speed=0.00996x elapsed=0:01:03.60    \nframe=   21 fps=0.3 q=34.2 size=       0KiB time=00:00:00.63 bitrate=   0.6kbits/s speed=0.00987x elapsed=0:01:04.13    \nframe=   21 fps=0.3 q=34.2 size=       0KiB time=00:00:00.63 bitrate=   0.6kbits/s speed=0.00979x elapsed=0:01:04.66    \nframe=   21 fps=0.3 q=34.2 size=       0KiB time=00:00:00.63 bitrate=   0.6kbits/s speed=0.00972x elapsed=0:01:05.18    \nframe=   21 fps=0.3 q=34.2 size=       0KiB time=00:00:00.63 bitrate=   0.6kbits/s speed=0.00964x elapsed=0:01:05.70    \nframe=   22 fps=0.3 q=31.4 size=       0KiB time=00:00:00.66 bitrate=   0.5kbits/s speed=0.0101x elapsed=0:01:06.24    \nframe=   22 fps=0.3 q=31.4 size=       0KiB time=00:00:00.66 bitrate=   0.5kbits/s speed=0.00998x elapsed=0:01:06.77    \nframe=   22 fps=0.3 q=31.4 size=       0KiB time=00:00:00.66 bitrate=   0.5kbits/s speed=0.00991x elapsed=0:01:07.30    \nframe=   22 fps=0.3 q=31.4 size=       0KiB time=00:00:00.66 bitrate=   0.5kbits/s speed=0.00983x elapsed=0:01:07.84    \nframe=   22 fps=0.3 q=31.4 size=       0KiB time=00:00:00.66 bitrate=   0.5kbits/s speed=0.00975x elapsed=0:01:08.36    \nframe=   22 fps=0.3 q=31.4 size=       0KiB time=00:00:00.66 bitrate=   0.5kbits/s speed=0.00968x elapsed=0:01:08.87    \nframe=   23 fps=0.3 q=34.0 size=       0KiB time=00:00:00.70 bitrate=   0.5kbits/s speed=0.0101x elapsed=0:01:09.41    \nframe=   23 fps=0.3 q=34.0 size=       0KiB time=00:00:00.70 bitrate=   0.5kbits/s speed=0.01x elapsed=0:01:09.93    \nframe=   23 fps=0.3 q=34.0 size=       0KiB time=00:00:00.70 bitrate=   0.5kbits/s speed=0.00994x elapsed=0:01:10.45    \nframe=   23 fps=0.3 q=34.0 size=       0KiB time=00:00:00.70 bitrate=   0.5kbits/s speed=0.00986x elapsed=0:01:10.98    \nframe=   23 fps=0.3 q=34.0 size=       0KiB time=00:00:00.70 bitrate=   0.5kbits/s speed=0.00979x elapsed=0:01:11.53    \nframe=   24 fps=0.3 q=31.5 size=       0KiB time=00:00:00.73 bitrate=   0.5kbits/s speed=0.0102x elapsed=0:01:12.09    \nframe=   24 fps=0.3 q=31.5 size=       0KiB time=00:00:00.73 bitrate=   0.5kbits/s speed=0.0101x elapsed=0:01:12.59    \nframe=   24 fps=0.3 q=31.5 size=       0KiB time=00:00:00.73 bitrate=   0.5kbits/s speed=0.01x elapsed=0:01:13.12    \nframe=   24 fps=0.3 q=31.5 size=       0KiB time=00:00:00.73 bitrate=   0.5kbits/s speed=0.00995x elapsed=0:01:13.67    \nframe=   24 fps=0.3 q=31.5 size=       0KiB time=00:00:00.73 bitrate=   0.5kbits/s speed=0.00988x elapsed=0:01:14.19    \nframe=   24 fps=0.3 q=31.5 size=       0KiB time=00:00:00.73 bitrate=   0.5kbits/s speed=0.00981x elapsed=0:01:14.72    \nframe=   24 fps=0.3 q=31.5 size=       0KiB time=00:00:00.73 bitrate=   0.5kbits/s speed=0.00975x elapsed=0:01:15.24    \nframe=   25 fps=0.3 q=31.4 size=       0KiB time=00:00:00.76 bitrate=   0.5kbits/s speed=0.0101x elapsed=0:01:15.75    \nframe=   25 fps=0.3 q=31.4 size=       0KiB time=00:00:00.76 bitrate=   0.5kbits/s speed=0.0101x elapsed=0:01:16.27    \nframe=   25 fps=0.3 q=31.4 size=       0KiB time=00:00:00.76 bitrate=   0.5kbits/s speed=0.00998x elapsed=0:01:16.79    \nframe=   25 fps=0.3 q=31.4 size=       0KiB time=00:00:00.76 bitrate=   0.5kbits/s speed=0.00992x elapsed=0:01:17.30    \nframe=   25 fps=0.3 q=31.4 size=       0KiB time=00:00:00.76 bitrate=   0.5kbits/s speed=0.00985x elapsed=0:01:17.83    \nframe=   26 fps=0.3 q=33.9 size=       0KiB time=00:00:00.80 bitrate=   0.4kbits/s speed=0.0102x elapsed=0:01:18.34    \nframe=   26 fps=0.3 q=33.9 size=       0KiB time=00:00:00.80 bitrate=   0.4kbits/s speed=0.0101x elapsed=0:01:18.86    \nframe=   26 fps=0.3 q=33.9 size=       0KiB time=00:00:00.80 bitrate=   0.4kbits/s speed=0.0101x elapsed=0:01:19.39    \nframe=   26 fps=0.3 q=33.9 size=       0KiB time=00:00:00.80 bitrate=   0.4kbits/s speed=0.01x elapsed=0:01:19.92    \nframe=   26 fps=0.3 q=33.9 size=       0KiB time=00:00:00.80 bitrate=   0.4kbits/s speed=0.00994x elapsed=0:01:20.45    \nframe=   26 fps=0.3 q=33.9 size=       0KiB time=00:00:00.80 bitrate=   0.4kbits/s speed=0.00988x elapsed=0:01:20.96    \nframe=   26 fps=0.3 q=33.9 size=       0KiB time=00:00:00.80 bitrate=   0.4kbits/s speed=0.00982x elapsed=0:01:21.48    \nframe=   27 fps=0.3 q=31.1 size=       0KiB time=00:00:00.83 bitrate=   0.4kbits/s speed=0.0102x elapsed=0:01:22.00    \nframe=   27 fps=0.3 q=31.1 size=       0KiB time=00:00:00.83 bitrate=   0.4kbits/s speed=0.0101x elapsed=0:01:22.52    \nframe=   27 fps=0.3 q=31.1 size=       0KiB time=00:00:00.83 bitrate=   0.4kbits/s speed=0.01x elapsed=0:01:23.03    \nframe=   27 fps=0.3 q=31.1 size=       0KiB time=00:00:00.83 bitrate=   0.4kbits/s speed=0.00997x elapsed=0:01:23.56    \nframe=   27 fps=0.3 q=31.1 size=       0KiB time=00:00:00.83 bitrate=   0.4kbits/s speed=0.00991x elapsed=0:01:24.08    \nframe=   28 fps=0.3 q=34.2 size=       0KiB time=00:00:00.86 bitrate=   0.4kbits/s speed=0.0102x elapsed=0:01:24.60    \nframe=   28 fps=0.3 q=34.2 size=       0KiB time=00:00:00.86 bitrate=   0.4kbits/s speed=0.0102x elapsed=0:01:25.11    \nframe=   28 fps=0.3 q=34.2 size=       0KiB time=00:00:00.86 bitrate=   0.4kbits/s speed=0.0101x elapsed=0:01:25.62    \nframe=   29 fps=0.3 q=31.8 size=       0KiB time=00:00:00.90 bitrate=   0.4kbits/s speed=0.0104x elapsed=0:01:26.15    \nframe=   29 fps=0.3 q=31.8 size=       0KiB time=00:00:00.90 bitrate=   0.4kbits/s speed=0.0104x elapsed=0:01:26.67    \nframe=   29 fps=0.3 q=31.8 size=       0KiB time=00:00:00.90 bitrate=   0.4kbits/s speed=0.0103x elapsed=0:01:27.19    \nframe=   29 fps=0.3 q=31.8 size=       0KiB time=00:00:00.90 bitrate=   0.4kbits/s speed=0.0103x elapsed=0:01:27.70    \nframe=   30 fps=0.3 q=33.2 size=       0KiB time=00:00:00.93 bitrate=   0.4kbits/s speed=0.0106x elapsed=0:01:28.22    \nframe=   30 fps=0.3 q=33.2 size=       0KiB time=00:00:00.93 bitrate=   0.4kbits/s speed=0.0105x elapsed=0:01:28.73    \nframe=   30 fps=0.3 q=33.2 size=       0KiB time=00:00:00.93 bitrate=   0.4kbits/s speed=0.0105x elapsed=0:01:29.27    \nframe=   30 fps=0.3 q=33.2 size=       0KiB time=00:00:00.93 bitrate=   0.4kbits/s speed=0.0104x elapsed=0:01:29.80    \nframe=   30 fps=0.3 q=33.2 size=       0KiB time=00:00:00.93 bitrate=   0.4kbits/s speed=0.0103x elapsed=0:01:30.35    \nframe=   30 fps=0.3 q=33.2 size=       0KiB time=00:00:00.93 bitrate=   0.4kbits/s speed=0.0103x elapsed=0:01:30.88    \nframe=   30 fps=0.3 q=33.2 size=       0KiB time=00:00:00.93 bitrate=   0.4kbits/s speed=0.0102x elapsed=0:01:31.39    \nframe=   30 fps=0.3 q=33.2 size=       0KiB time=00:00:00.93 bitrate=   0.4kbits/s speed=0.0102x elapsed=0:01:31.93    \nframe=   31 fps=0.3 q=34.6 size=       0KiB time=00:00:00.96 bitrate=   0.4kbits/s speed=0.0105x elapsed=0:01:32.45    \nframe=   31 fps=0.3 q=34.6 size=       0KiB time=00:00:00.96 bitrate=   0.4kbits/s speed=0.0104x elapsed=0:01:32.97    \nframe=   31 fps=0.3 q=34.6 size=       0KiB time=00:00:00.96 bitrate=   0.4kbits/s speed=0.0103x elapsed=0:01:33.52    \nframe=   31 fps=0.3 q=34.6 size=       0KiB time=00:00:00.96 bitrate=   0.4kbits/s speed=0.0103x elapsed=0:01:34.07    \nframe=   31 fps=0.3 q=34.6 size=       0KiB time=00:00:00.96 bitrate=   0.4kbits/s speed=0.0102x elapsed=0:01:34.57    \nframe=   32 fps=0.3 q=34.5 size=       0KiB time=00:00:01.00 bitrate=   0.4kbits/s speed=0.0105x elapsed=0:01:35.10    \nframe=   32 fps=0.3 q=34.5 size=       0KiB time=00:00:01.00 bitrate=   0.4kbits/s speed=0.0105x elapsed=0:01:35.61    \nframe=   32 fps=0.3 q=34.5 size=       0KiB time=00:00:01.00 bitrate=   0.4kbits/s speed=0.0104x elapsed=0:01:36.13    \nframe=   32 fps=0.3 q=34.5 size=       0KiB time=00:00:01.00 bitrate=   0.4kbits/s speed=0.0103x elapsed=0:01:36.65    \nframe=   33 fps=0.3 q=32.1 size=       0KiB time=00:00:01.03 bitrate=   0.3kbits/s speed=0.0106x elapsed=0:01:37.16    \nframe=   33 fps=0.3 q=32.1 size=       0KiB time=00:00:01.03 bitrate=   0.3kbits/s speed=0.0106x elapsed=0:01:37.68    \nframe=   34 fps=0.3 q=34.4 size=       0KiB time=00:00:01.06 bitrate=   0.3kbits/s speed=0.0109x elapsed=0:01:38.20    \nframe=   35 fps=0.4 q=30.7 size=       0KiB time=00:00:01.10 bitrate=   0.3kbits/s speed=0.0111x elapsed=0:01:38.70    \nframe=   35 fps=0.4 q=30.7 size=       0KiB time=00:00:01.10 bitrate=   0.3kbits/s speed=0.0111x elapsed=0:01:39.23    \nframe=   36 fps=0.4 q=32.6 size=     256KiB time=00:00:01.13 bitrate=1850.7kbits/s speed=0.0114x elapsed=0:01:39.74    \nframe=   36 fps=0.4 q=32.6 size=     256KiB time=00:00:01.13 bitrate=1850.7kbits/s speed=0.0113x elapsed=0:01:40.25    \nframe=   36 fps=0.4 q=32.6 size=     256KiB time=00:00:01.13 bitrate=1850.7kbits/s speed=0.0112x elapsed=0:01:40.77    \nframe=   37 fps=0.4 q=34.8 size=     256KiB time=00:00:01.16 bitrate=1797.9kbits/s speed=0.0115x elapsed=0:01:41.30    \nframe=   37 fps=0.4 q=34.8 size=     256KiB time=00:00:01.16 bitrate=1797.9kbits/s speed=0.0115x elapsed=0:01:41.81    \nframe=   37 fps=0.4 q=34.8 size=     256KiB time=00:00:01.16 bitrate=1797.9kbits/s speed=0.0114x elapsed=0:01:42.32    \nframe=   37 fps=0.4 q=34.8 size=     256KiB time=00:00:01.16 bitrate=1797.9kbits/s speed=0.0113x elapsed=0:01:42.84    \nframe=   37 fps=0.4 q=34.8 size=     256KiB time=00:00:01.16 bitrate=1797.9kbits/s speed=0.0113x elapsed=0:01:43.38    \nframe=   38 fps=0.4 q=35.3 size=     256KiB time=00:00:01.20 bitrate=1747.9kbits/s speed=0.0115x elapsed=0:01:43.92    \nframe=   38 fps=0.4 q=35.3 size=     256KiB time=00:00:01.20 bitrate=1747.9kbits/s speed=0.0115x elapsed=0:01:44.44    \nframe=   38 fps=0.4 q=35.3 size=     256KiB time=00:00:01.20 bitrate=1747.9kbits/s speed=0.0114x elapsed=0:01:44.97    \nframe=   38 fps=0.4 q=35.3 size=     256KiB time=00:00:01.20 bitrate=1747.9kbits/s speed=0.0114x elapsed=0:01:45.52    \nframe=   39 fps=0.4 q=31.3 size=     256KiB time=00:00:01.23 bitrate=1700.7kbits/s speed=0.0116x elapsed=0:01:46.04    \nframe=   39 fps=0.4 q=31.3 size=     256KiB time=00:00:01.23 bitrate=1700.7kbits/s speed=0.0116x elapsed=0:01:46.57    \nframe=   39 fps=0.4 q=31.3 size=     256KiB time=00:00:01.23 bitrate=1700.7kbits/s speed=0.0115x elapsed=0:01:47.11    \nframe=   40 fps=0.4 q=34.1 size=     256KiB time=00:00:01.26 bitrate=1655.9kbits/s speed=0.0118x elapsed=0:01:47.65    \nframe=   40 fps=0.4 q=34.1 size=     256KiB time=00:00:01.26 bitrate=1655.9kbits/s speed=0.0117x elapsed=0:01:48.17    \nframe=   40 fps=0.4 q=34.1 size=     256KiB time=00:00:01.26 bitrate=1655.9kbits/s speed=0.0117x elapsed=0:01:48.70    \nframe=   40 fps=0.4 q=34.1 size=     256KiB time=00:00:01.26 bitrate=1655.9kbits/s speed=0.0116x elapsed=0:01:49.26    \nframe=   40 fps=0.4 q=34.1 size=     256KiB time=00:00:01.26 bitrate=1655.9kbits/s speed=0.0115x elapsed=0:01:49.77    \nframe=   41 fps=0.4 q=35.8 size=     256KiB time=00:00:01.30 bitrate=1613.5kbits/s speed=0.0118x elapsed=0:01:50.29    \nframe=   41 fps=0.4 q=35.8 size=     256KiB time=00:00:01.30 bitrate=1613.5kbits/s speed=0.0117x elapsed=0:01:50.81    \nframe=   41 fps=0.4 q=35.8 size=     256KiB time=00:00:01.30 bitrate=1613.5kbits/s speed=0.0117x elapsed=0:01:51.34    \nframe=   41 fps=0.4 q=35.8 size=     256KiB time=00:00:01.30 bitrate=1613.5kbits/s speed=0.0116x elapsed=0:01:51.85    \nframe=   42 fps=0.4 q=36.2 size=     256KiB time=00:00:01.33 bitrate=1573.1kbits/s speed=0.0119x elapsed=0:01:52.38    \nframe=   42 fps=0.4 q=36.2 size=     256KiB time=00:00:01.33 bitrate=1573.1kbits/s speed=0.0118x elapsed=0:01:52.93    \nframe=   42 fps=0.4 q=36.2 size=     256KiB time=00:00:01.33 bitrate=1573.1kbits/s speed=0.0118x elapsed=0:01:53.46    \nframe=   42 fps=0.4 q=36.2 size=     256KiB time=00:00:01.33 bitrate=1573.1kbits/s speed=0.0117x elapsed=0:01:53.98    \nframe=   42 fps=0.4 q=36.2 size=     256KiB time=00:00:01.33 bitrate=1573.1kbits/s speed=0.0116x elapsed=0:01:54.50    \nframe=   43 fps=0.4 q=31.6 size=     256KiB time=00:00:01.36 bitrate=1534.8kbits/s speed=0.0119x elapsed=0:01:55.02    \nframe=   43 fps=0.4 q=31.6 size=     256KiB time=00:00:01.36 bitrate=1534.8kbits/s speed=0.0118x elapsed=0:01:55.54    \nframe=   43 fps=0.4 q=31.6 size=     256KiB time=00:00:01.36 bitrate=1534.8kbits/s speed=0.0118x elapsed=0:01:56.10    \nframe=   43 fps=0.4 q=31.6 size=     256KiB time=00:00:01.36 bitrate=1534.8kbits/s speed=0.0117x elapsed=0:01:56.66    \nframe=   44 fps=0.4 q=33.4 size=     256KiB time=00:00:01.40 bitrate=1498.2kbits/s speed=0.0119x elapsed=0:01:57.17    \nframe=   45 fps=0.4 q=35.9 size=     256KiB time=00:00:01.43 bitrate=1463.4kbits/s speed=0.0122x elapsed=0:01:57.70    \nframe=   45 fps=0.4 q=35.9 size=     256KiB time=00:00:01.43 bitrate=1463.4kbits/s speed=0.0121x elapsed=0:01:58.22    \nframe=   45 fps=0.4 q=35.9 size=     256KiB time=00:00:01.43 bitrate=1463.4kbits/s speed=0.0121x elapsed=0:01:58.73    \nframe=   45 fps=0.4 q=35.9 size=     256KiB time=00:00:01.43 bitrate=1463.4kbits/s speed=0.012x elapsed=0:01:59.25    \nframe=   45 fps=0.4 q=35.9 size=     256KiB time=00:00:01.43 bitrate=1463.4kbits/s speed=0.012x elapsed=0:01:59.76    \nframe=   46 fps=0.4 q=36.1 size=     256KiB time=00:00:01.46 bitrate=1430.1kbits/s speed=0.0122x elapsed=0:02:00.28    \nframe=   46 fps=0.4 q=36.1 size=     256KiB time=00:00:01.46 bitrate=1430.1kbits/s speed=0.0121x elapsed=0:02:00.80    \nframe=   46 fps=0.4 q=36.1 size=     256KiB time=00:00:01.46 bitrate=1430.1kbits/s speed=0.0121x elapsed=0:02:01.32    \nframe=   46 fps=0.4 q=36.1 size=     256KiB time=00:00:01.46 bitrate=1430.1kbits/s speed=0.012x elapsed=0:02:01.86    \nframe=   47 fps=0.4 q=35.8 size=     256KiB time=00:00:01.50 bitrate=1398.3kbits/s speed=0.0123x elapsed=0:02:02.38    \nframe=   47 fps=0.4 q=35.8 size=     256KiB time=00:00:01.50 bitrate=1398.3kbits/s speed=0.0122x elapsed=0:02:02.89    \nframe=   48 fps=0.4 q=31.7 size=     256KiB time=00:00:01.53 bitrate=1367.9kbits/s speed=0.0124x elapsed=0:02:03.42    \nframe=   48 fps=0.4 q=31.7 size=     256KiB time=00:00:01.53 bitrate=1367.9kbits/s speed=0.0124x elapsed=0:02:03.94    \nframe=   49 fps=0.4 q=33.8 size=     256KiB time=00:00:01.56 bitrate=1338.8kbits/s speed=0.0126x elapsed=0:02:04.45    \nframe=   49 fps=0.4 q=33.8 size=     256KiB time=00:00:01.56 bitrate=1338.8kbits/s speed=0.0125x elapsed=0:02:04.97    \nframe=   49 fps=0.4 q=33.8 size=     256KiB time=00:00:01.56 bitrate=1338.8kbits/s speed=0.0125x elapsed=0:02:05.48    \nframe=   50 fps=0.4 q=36.2 size=     256KiB time=00:00:01.60 bitrate=1310.9kbits/s speed=0.0127x elapsed=0:02:06.01    \nframe=   50 fps=0.4 q=36.2 size=     256KiB time=00:00:01.60 bitrate=1310.9kbits/s speed=0.0126x elapsed=0:02:06.52    \nframe=   50 fps=0.4 q=36.2 size=     256KiB time=00:00:01.60 bitrate=1310.9kbits/s speed=0.0126x elapsed=0:02:07.04    \nframe=   50 fps=0.4 q=36.2 size=     256KiB time=00:00:01.60 bitrate=1310.9kbits/s speed=0.0125x elapsed=0:02:07.57    \nframe=   51 fps=0.4 q=36.3 size=     256KiB time=00:00:01.63 bitrate=1284.2kbits/s speed=0.0128x elapsed=0:02:08.08    \nframe=   51 fps=0.4 q=36.3 size=     256KiB time=00:00:01.63 bitrate=1284.2kbits/s speed=0.0127x elapsed=0:02:08.60    \nframe=   52 fps=0.4 q=32.0 size=     256KiB time=00:00:01.66 bitrate=1258.5kbits/s speed=0.0129x elapsed=0:02:09.11    \nframe=   52 fps=0.4 q=32.0 size=     256KiB time=00:00:01.66 bitrate=1258.5kbits/s speed=0.0129x elapsed=0:02:09.63    \nframe=   53 fps=0.4 q=33.7 size=     256KiB time=00:00:01.70 bitrate=1233.8kbits/s speed=0.0131x elapsed=0:02:10.14    \nframe=   54 fps=0.4 q=36.0 size=     256KiB time=00:00:01.73 bitrate=1210.1kbits/s speed=0.0133x elapsed=0:02:10.67    \nframe=   54 fps=0.4 q=36.0 size=     256KiB time=00:00:01.73 bitrate=1210.1kbits/s speed=0.0132x elapsed=0:02:11.18    \nframe=   54 fps=0.4 q=36.0 size=     256KiB time=00:00:01.73 bitrate=1210.1kbits/s speed=0.0132x elapsed=0:02:11.71    \nframe=   54 fps=0.4 q=36.0 size=     256KiB time=00:00:01.73 bitrate=1210.1kbits/s speed=0.0131x elapsed=0:02:12.23    \nframe=   54 fps=0.4 q=36.0 size=     256KiB time=00:00:01.73 bitrate=1210.1kbits/s speed=0.0131x elapsed=0:02:12.78    \nframe=   54 fps=0.4 q=36.0 size=     256KiB time=00:00:01.73 bitrate=1210.1kbits/s speed=0.013x elapsed=0:02:13.34    \nframe=   54 fps=0.4 q=36.0 size=     256KiB time=00:00:01.73 bitrate=1210.1kbits/s speed=0.0129x elapsed=0:02:13.89    \nframe=   54 fps=0.4 q=36.0 size=     256KiB time=00:00:01.73 bitrate=1210.1kbits/s speed=0.0129x elapsed=0:02:14.51    \nframe=   55 fps=0.4 q=36.2 size=     256KiB time=00:00:01.76 bitrate=1187.3kbits/s speed=0.0131x elapsed=0:02:15.07    \nframe=   55 fps=0.4 q=36.2 size=     256KiB time=00:00:01.76 bitrate=1187.3kbits/s speed=0.013x elapsed=0:02:15.63    \nframe=   55 fps=0.4 q=36.2 size=     256KiB time=00:00:01.76 bitrate=1187.3kbits/s speed=0.013x elapsed=0:02:16.14    \nframe=   55 fps=0.4 q=36.2 size=     256KiB time=00:00:01.76 bitrate=1187.3kbits/s speed=0.0129x elapsed=0:02:16.67    \nframe=   55 fps=0.4 q=36.2 size=     256KiB time=00:00:01.76 bitrate=1187.3kbits/s speed=0.0129x elapsed=0:02:17.19    \nframe=   56 fps=0.4 q=36.2 size=     256KiB time=00:00:01.80 bitrate=1165.3kbits/s speed=0.0131x elapsed=0:02:17.75    \nframe=   56 fps=0.4 q=36.2 size=     256KiB time=00:00:01.80 bitrate=1165.3kbits/s speed=0.013x elapsed=0:02:18.26    \nframe=   56 fps=0.4 q=36.2 size=     256KiB time=00:00:01.80 bitrate=1165.3kbits/s speed=0.013x elapsed=0:02:18.78    \nframe=   56 fps=0.4 q=36.2 size=     256KiB time=00:00:01.80 bitrate=1165.3kbits/s speed=0.0129x elapsed=0:02:19.30    \nframe=   56 fps=0.4 q=36.2 size=     256KiB time=00:00:01.80 bitrate=1165.3kbits/s speed=0.0129x elapsed=0:02:19.84    \nframe=   57 fps=0.4 q=31.9 size=     256KiB time=00:00:01.83 bitrate=1144.1kbits/s speed=0.0131x elapsed=0:02:20.36    \nframe=   57 fps=0.4 q=31.9 size=     256KiB time=00:00:01.83 bitrate=1144.1kbits/s speed=0.013x elapsed=0:02:20.88    \nframe=   58 fps=0.4 q=34.1 size=     256KiB time=00:00:01.86 bitrate=1123.7kbits/s speed=0.0132x elapsed=0:02:21.43    \nframe=   58 fps=0.4 q=34.1 size=     256KiB time=00:00:01.86 bitrate=1123.7kbits/s speed=0.0131x elapsed=0:02:21.95    \nframe=   59 fps=0.4 q=36.0 size=     256KiB time=00:00:01.90 bitrate=1103.9kbits/s speed=0.0133x elapsed=0:02:22.47    \nframe=   59 fps=0.4 q=36.0 size=     256KiB time=00:00:01.90 bitrate=1103.9kbits/s speed=0.0133x elapsed=0:02:22.99    \nframe=   60 fps=0.4 q=35.9 size=     256KiB time=00:00:01.93 bitrate=1084.9kbits/s speed=0.0135x elapsed=0:02:23.51    \nframe=   60 fps=0.4 q=35.9 size=     256KiB time=00:00:01.93 bitrate=1084.9kbits/s speed=0.0134x elapsed=0:02:24.03    \nframe=   61 fps=0.4 q=36.6 size=     256KiB time=00:00:01.96 bitrate=1066.5kbits/s speed=0.0136x elapsed=0:02:24.55    \nframe=   61 fps=0.4 q=36.6 size=     256KiB time=00:00:01.96 bitrate=1066.5kbits/s speed=0.0136x elapsed=0:02:25.08    \nframe=   61 fps=0.4 q=36.6 size=     256KiB time=00:00:01.96 bitrate=1066.5kbits/s speed=0.0135x elapsed=0:02:25.60    \nframe=   61 fps=0.4 q=36.6 size=     256KiB time=00:00:01.96 bitrate=1066.5kbits/s speed=0.0135x elapsed=0:02:26.14    \nframe=   61 fps=0.4 q=36.6 size=     256KiB time=00:00:01.96 bitrate=1066.5kbits/s speed=0.0134x elapsed=0:02:26.66    \nframe=   62 fps=0.4 q=32.0 size=     256KiB time=00:00:02.00 bitrate=1048.8kbits/s speed=0.0136x elapsed=0:02:27.20    \nframe=   62 fps=0.4 q=32.0 size=     256KiB time=00:00:02.00 bitrate=1048.8kbits/s speed=0.0135x elapsed=0:02:27.71    \nframe=   62 fps=0.4 q=32.0 size=     256KiB time=00:00:02.00 bitrate=1048.8kbits/s speed=0.0135x elapsed=0:02:28.24    \nframe=   62 fps=0.4 q=32.0 size=     256KiB time=00:00:02.00 bitrate=1048.8kbits/s speed=0.0134x elapsed=0:02:28.76    \nframe=   63 fps=0.4 q=33.4 size=     512KiB time=00:00:02.03 bitrate=2062.9kbits/s speed=0.0136x elapsed=0:02:29.28    \nframe=   63 fps=0.4 q=33.4 size=     512KiB time=00:00:02.03 bitrate=2062.9kbits/s speed=0.0136x elapsed=0:02:29.82    \nframe=   63 fps=0.4 q=33.4 size=     512KiB time=00:00:02.03 bitrate=2062.9kbits/s speed=0.0135x elapsed=0:02:30.34    \nframe=   64 fps=0.4 q=36.7 size=     512KiB time=00:00:02.06 bitrate=2029.7kbits/s speed=0.0137x elapsed=0:02:30.87    \nframe=   64 fps=0.4 q=36.7 size=     512KiB time=00:00:02.06 bitrate=2029.7kbits/s speed=0.0137x elapsed=0:02:31.39    \nframe=   65 fps=0.4 q=36.9 size=     512KiB time=00:00:02.10 bitrate=1997.5kbits/s speed=0.0138x elapsed=0:02:31.91    \nframe=   65 fps=0.4 q=36.9 size=     512KiB time=00:00:02.10 bitrate=1997.5kbits/s speed=0.0138x elapsed=0:02:32.44    \nframe=   66 fps=0.4 q=37.1 size=     512KiB time=00:00:02.13 bitrate=1966.2kbits/s speed=0.0139x elapsed=0:02:32.96    \nframe=   66 fps=0.4 q=37.1 size=     512KiB time=00:00:02.13 bitrate=1966.2kbits/s speed=0.0139x elapsed=0:02:33.49    \nframe=   66 fps=0.4 q=37.1 size=     512KiB time=00:00:02.13 bitrate=1966.2kbits/s speed=0.0139x elapsed=0:02:34.02    \nframe=   66 fps=0.4 q=37.1 size=     512KiB time=00:00:02.13 bitrate=1966.2kbits/s speed=0.0138x elapsed=0:02:34.57    \nframe=   66 fps=0.4 q=37.1 size=     512KiB time=00:00:02.13 bitrate=1966.2kbits/s speed=0.0138x elapsed=0:02:35.09    \nframe=   66 fps=0.4 q=37.1 size=     512KiB time=00:00:02.13 bitrate=1966.2kbits/s speed=0.0137x elapsed=0:02:35.62    \nframe=   67 fps=0.4 q=32.1 size=     512KiB time=00:00:02.16 bitrate=1936.0kbits/s speed=0.0139x elapsed=0:02:36.14    \nframe=   68 fps=0.4 q=35.1 size=     512KiB time=00:00:02.20 bitrate=1906.7kbits/s speed=0.014x elapsed=0:02:36.69    \nframe=   68 fps=0.4 q=35.1 size=     512KiB time=00:00:02.20 bitrate=1906.7kbits/s speed=0.014x elapsed=0:02:37.21    \nframe=   68 fps=0.4 q=35.1 size=     512KiB time=00:00:02.20 bitrate=1906.7kbits/s speed=0.0139x elapsed=0:02:37.73    \nframe=   68 fps=0.4 q=35.1 size=     512KiB time=00:00:02.20 bitrate=1906.7kbits/s speed=0.0139x elapsed=0:02:38.27    \nframe=   68 fps=0.4 q=35.1 size=     512KiB time=00:00:02.20 bitrate=1906.7kbits/s speed=0.0139x elapsed=0:02:38.79    \nframe=   69 fps=0.4 q=36.5 size=     512KiB time=00:00:02.23 bitrate=1878.2kbits/s speed=0.014x elapsed=0:02:39.32    \nframe=   69 fps=0.4 q=36.5 size=     512KiB time=00:00:02.23 bitrate=1878.2kbits/s speed=0.014x elapsed=0:02:39.87    \nframe=   69 fps=0.4 q=36.5 size=     512KiB time=00:00:02.23 bitrate=1878.2kbits/s speed=0.0139x elapsed=0:02:40.44    \nframe=   70 fps=0.4 q=36.7 size=     512KiB time=00:00:02.26 bitrate=1850.6kbits/s speed=0.0141x elapsed=0:02:40.99    \nframe=   71 fps=0.4 q=37.1 size=     512KiB time=00:00:02.30 bitrate=1823.8kbits/s speed=0.0142x elapsed=0:02:41.50    \nframe=   71 fps=0.4 q=37.1 size=     512KiB time=00:00:02.30 bitrate=1823.8kbits/s speed=0.0142x elapsed=0:02:42.02    \nframe=   71 fps=0.4 q=37.1 size=     512KiB time=00:00:02.30 bitrate=1823.8kbits/s speed=0.0141x elapsed=0:02:42.57    \nframe=   71 fps=0.4 q=37.1 size=     512KiB time=00:00:02.30 bitrate=1823.8kbits/s speed=0.0141x elapsed=0:02:43.11    \nframe=   72 fps=0.4 q=32.3 size=     512KiB time=00:00:02.33 bitrate=1797.7kbits/s speed=0.0143x elapsed=0:02:43.63    \nframe=   72 fps=0.4 q=32.3 size=     512KiB time=00:00:02.33 bitrate=1797.7kbits/s speed=0.0142x elapsed=0:02:44.14    \nframe=   73 fps=0.4 q=35.2 size=     512KiB time=00:00:02.36 bitrate=1772.4kbits/s speed=0.0144x elapsed=0:02:44.67    \nframe=   73 fps=0.4 q=35.2 size=     512KiB time=00:00:02.36 bitrate=1772.4kbits/s speed=0.0143x elapsed=0:02:45.19    \nframe=   73 fps=0.4 q=35.2 size=     512KiB time=00:00:02.36 bitrate=1772.4kbits/s speed=0.0143x elapsed=0:02:45.73    \nframe=   74 fps=0.4 q=36.9 size=     512KiB time=00:00:02.40 bitrate=1747.8kbits/s speed=0.0144x elapsed=0:02:46.25    \nframe=   74 fps=0.4 q=36.9 size=     512KiB time=00:00:02.40 bitrate=1747.8kbits/s speed=0.0144x elapsed=0:02:46.77    \nframe=   75 fps=0.4 q=36.9 size=     512KiB time=00:00:02.43 bitrate=1723.8kbits/s speed=0.0145x elapsed=0:02:47.30    \nframe=   75 fps=0.4 q=36.9 size=     512KiB time=00:00:02.43 bitrate=1723.8kbits/s speed=0.0145x elapsed=0:02:47.81    \nframe=   76 fps=0.5 q=37.3 size=     512KiB time=00:00:02.46 bitrate=1700.5kbits/s speed=0.0147x elapsed=0:02:48.33    \nframe=   76 fps=0.5 q=37.3 size=     512KiB time=00:00:02.46 bitrate=1700.5kbits/s speed=0.0146x elapsed=0:02:48.85    \nframe=   76 fps=0.4 q=37.3 size=     512KiB time=00:00:02.46 bitrate=1700.5kbits/s speed=0.0146x elapsed=0:02:49.36    \nframe=   77 fps=0.5 q=32.4 size=     512KiB time=00:00:02.50 bitrate=1677.9kbits/s speed=0.0147x elapsed=0:02:49.88    \nframe=   77 fps=0.5 q=32.4 size=     512KiB time=00:00:02.50 bitrate=1677.9kbits/s speed=0.0147x elapsed=0:02:50.40    \nframe=   78 fps=0.5 q=34.5 size=     512KiB time=00:00:02.53 bitrate=1655.8kbits/s speed=0.0148x elapsed=0:02:50.94    \nframe=   78 fps=0.5 q=34.5 size=     512KiB time=00:00:02.53 bitrate=1655.8kbits/s speed=0.0148x elapsed=0:02:51.50    \nframe=   79 fps=0.5 q=37.2 size=     512KiB time=00:00:02.56 bitrate=1634.3kbits/s speed=0.0149x elapsed=0:02:52.04    \nframe=   80 fps=0.5 q=37.6 size=     512KiB time=00:00:02.60 bitrate=1613.3kbits/s speed=0.0151x elapsed=0:02:52.55    \nframe=   80 fps=0.5 q=37.6 size=     512KiB time=00:00:02.60 bitrate=1613.3kbits/s speed=0.015x elapsed=0:02:53.09    \nframe=   80 fps=0.5 q=37.6 size=     512KiB time=00:00:02.60 bitrate=1613.3kbits/s speed=0.015x elapsed=0:02:53.61    \nframe=   81 fps=0.5 q=32.7 size=     512KiB time=00:00:02.63 bitrate=1592.9kbits/s speed=0.0151x elapsed=0:02:54.13    \nframe=   82 fps=0.5 q=34.4 size=     512KiB time=00:00:02.66 bitrate=1573.0kbits/s speed=0.0153x elapsed=0:02:54.64    \nframe=   83 fps=0.5 q=37.0 size=     512KiB time=00:00:02.70 bitrate=1553.6kbits/s speed=0.0154x elapsed=0:02:55.16    \nframe=   83 fps=0.5 q=37.0 size=     512KiB time=00:00:02.70 bitrate=1553.6kbits/s speed=0.0154x elapsed=0:02:55.67    \nframe=   83 fps=0.5 q=37.0 size=     512KiB time=00:00:02.70 bitrate=1553.6kbits/s speed=0.0153x elapsed=0:02:56.20    \nframe=   84 fps=0.5 q=37.1 size=     512KiB time=00:00:02.73 bitrate=1534.6kbits/s speed=0.0155x elapsed=0:02:56.72    \nframe=   84 fps=0.5 q=37.1 size=     512KiB time=00:00:02.73 bitrate=1534.6kbits/s speed=0.0154x elapsed=0:02:57.28    \nframe=   84 fps=0.5 q=37.1 size=     512KiB time=00:00:02.73 bitrate=1534.6kbits/s speed=0.0154x elapsed=0:02:57.82    \nframe=   84 fps=0.5 q=37.1 size=     512KiB time=00:00:02.73 bitrate=1534.6kbits/s speed=0.0153x elapsed=0:02:58.41    \nframe=   84 fps=0.5 q=37.1 size=     512KiB time=00:00:02.73 bitrate=1534.6kbits/s speed=0.0153x elapsed=0:02:58.92    \nframe=   84 fps=0.5 q=37.1 size=     512KiB time=00:00:02.73 bitrate=1534.6kbits/s speed=0.0152x elapsed=0:02:59.45    \nframe=   85 fps=0.5 q=37.4 size=     512KiB time=00:00:02.76 bitrate=1516.1kbits/s speed=0.0154x elapsed=0:02:59.99    \nframe=   85 fps=0.5 q=37.4 size=     512KiB time=00:00:02.76 bitrate=1516.1kbits/s speed=0.0153x elapsed=0:03:00.51    \nframe=   85 fps=0.5 q=37.4 size=     512KiB time=00:00:02.76 bitrate=1516.1kbits/s speed=0.0153x elapsed=0:03:01.05    \nframe=   86 fps=0.5 q=32.6 size=     512KiB time=00:00:02.80 bitrate=1498.1kbits/s speed=0.0154x elapsed=0:03:01.59    \nframe=   86 fps=0.5 q=32.6 size=     512KiB time=00:00:02.80 bitrate=1498.1kbits/s speed=0.0154x elapsed=0:03:02.12    \nframe=   86 fps=0.5 q=32.6 size=     512KiB time=00:00:02.80 bitrate=1498.1kbits/s speed=0.0153x elapsed=0:03:02.66    \nframe=   87 fps=0.5 q=34.3 size=     512KiB time=00:00:02.83 bitrate=1480.5kbits/s speed=0.0155x elapsed=0:03:03.17    \nframe=   87 fps=0.5 q=34.3 size=     512KiB time=00:00:02.83 bitrate=1480.5kbits/s speed=0.0154x elapsed=0:03:03.69    \nframe=   88 fps=0.5 q=36.8 size=     512KiB time=00:00:02.86 bitrate=1463.3kbits/s speed=0.0156x elapsed=0:03:04.20    \nframe=   89 fps=0.5 q=37.2 size=     512KiB time=00:00:02.90 bitrate=1446.4kbits/s speed=0.0157x elapsed=0:03:04.72    \nframe=   90 fps=0.5 q=32.6 size=     512KiB time=00:00:02.93 bitrate=1430.0kbits/s speed=0.0158x elapsed=0:03:05.24    \nframe=   91 fps=0.5 q=34.4 size=     512KiB time=00:00:02.96 bitrate=1413.9kbits/s speed=0.016x elapsed=0:03:05.75    \nframe=   92 fps=0.5 q=37.0 size=     512KiB time=00:00:03.00 bitrate=1398.2kbits/s speed=0.0161x elapsed=0:03:06.27    \nframe=   93 fps=0.5 q=36.9 size=     512KiB time=00:00:03.03 bitrate=1382.9kbits/s speed=0.0162x elapsed=0:03:06.79    \nframe=   94 fps=0.5 q=37.1 size=     768KiB time=00:00:03.06 bitrate=2051.7kbits/s speed=0.0164x elapsed=0:03:07.30    \nframe=   95 fps=0.5 q=32.4 size=     768KiB time=00:00:03.10 bitrate=2029.6kbits/s speed=0.0165x elapsed=0:03:07.81    \nframe=   96 fps=0.5 q=34.4 size=     768KiB time=00:00:03.13 bitrate=2008.0kbits/s speed=0.0166x elapsed=0:03:08.33    \nframe=   96 fps=0.5 q=34.4 size=     768KiB time=00:00:03.13 bitrate=2008.0kbits/s speed=0.0166x elapsed=0:03:08.85    \nframe=   97 fps=0.5 q=36.9 size=     768KiB time=00:00:03.16 bitrate=1986.9kbits/s speed=0.0167x elapsed=0:03:09.37    \nframe=   98 fps=0.5 q=36.7 size=     768KiB time=00:00:03.20 bitrate=1966.2kbits/s speed=0.0169x elapsed=0:03:09.87    \nframe=   99 fps=0.5 q=36.6 size=     768KiB time=00:00:03.23 bitrate=1945.9kbits/s speed=0.017x elapsed=0:03:10.39    \nframe=   99 fps=0.5 q=36.6 size=     768KiB time=00:00:03.23 bitrate=1945.9kbits/s speed=0.0169x elapsed=0:03:10.91    \nframe=  100 fps=0.5 q=32.5 size=     768KiB time=00:00:03.26 bitrate=1926.1kbits/s speed=0.0171x elapsed=0:03:11.43    \nframe=  100 fps=0.5 q=32.5 size=     768KiB time=00:00:03.26 bitrate=1926.1kbits/s speed=0.017x elapsed=0:03:11.95    \nframe=  101 fps=0.5 q=35.1 size=     768KiB time=00:00:03.30 bitrate=1906.6kbits/s speed=0.0171x elapsed=0:03:12.47    \nframe=  102 fps=0.5 q=37.1 size=     768KiB time=00:00:03.33 bitrate=1887.5kbits/s speed=0.0173x elapsed=0:03:12.98    \nframe=  103 fps=0.5 q=37.1 size=     768KiB time=00:00:03.36 bitrate=1868.9kbits/s speed=0.0174x elapsed=0:03:13.50    \nframe=  104 fps=0.5 q=32.5 size=     768KiB time=00:00:03.40 bitrate=1850.5kbits/s speed=0.0175x elapsed=0:03:14.02    \nframe=  104 fps=0.5 q=32.5 size=     768KiB time=00:00:03.40 bitrate=1850.5kbits/s speed=0.0175x elapsed=0:03:14.53    \nframe=  105 fps=0.5 q=34.4 size=     768KiB time=00:00:03.43 bitrate=1832.6kbits/s speed=0.0176x elapsed=0:03:15.05    \nframe=  105 fps=0.5 q=34.4 size=     768KiB time=00:00:03.43 bitrate=1832.6kbits/s speed=0.0176x elapsed=0:03:15.57    \nframe=  105 fps=0.5 q=34.4 size=     768KiB time=00:00:03.43 bitrate=1832.6kbits/s speed=0.0175x elapsed=0:03:16.08    \nframe=  106 fps=0.5 q=36.4 size=     768KiB time=00:00:03.46 bitrate=1814.9kbits/s speed=0.0176x elapsed=0:03:16.62    \nframe=  106 fps=0.5 q=36.4 size=     768KiB time=00:00:03.46 bitrate=1814.9kbits/s speed=0.0176x elapsed=0:03:17.14    \nframe=  107 fps=0.5 q=36.5 size=     768KiB time=00:00:03.50 bitrate=1797.7kbits/s speed=0.0177x elapsed=0:03:17.66    \nframe=  107 fps=0.5 q=36.5 size=     768KiB time=00:00:03.50 bitrate=1797.7kbits/s speed=0.0177x elapsed=0:03:18.19    \nframe=  107 fps=0.5 q=36.5 size=     768KiB time=00:00:03.50 bitrate=1797.7kbits/s speed=0.0176x elapsed=0:03:18.72    \nframe=  107 fps=0.5 q=36.5 size=     768KiB time=00:00:03.50 bitrate=1797.7kbits/s speed=0.0176x elapsed=0:03:19.24    \nframe=  108 fps=0.5 q=32.4 size=     768KiB time=00:00:03.53 bitrate=1780.7kbits/s speed=0.0177x elapsed=0:03:19.77    \nframe=  108 fps=0.5 q=32.4 size=     768KiB time=00:00:03.53 bitrate=1780.7kbits/s speed=0.0176x elapsed=0:03:20.29    \nframe=  108 fps=0.5 q=32.4 size=     768KiB time=00:00:03.53 bitrate=1780.7kbits/s speed=0.0176x elapsed=0:03:20.83    \nframe=  109 fps=0.5 q=34.4 size=     768KiB time=00:00:03.56 bitrate=1764.1kbits/s speed=0.0177x elapsed=0:03:21.34    \nframe=  109 fps=0.5 q=34.4 size=     768KiB time=00:00:03.56 bitrate=1764.1kbits/s speed=0.0177x elapsed=0:03:21.87    \nframe=  109 fps=0.5 q=34.4 size=     768KiB time=00:00:03.56 bitrate=1764.1kbits/s speed=0.0176x elapsed=0:03:22.38    \nframe=  110 fps=0.5 q=36.6 size=     768KiB time=00:00:03.60 bitrate=1747.7kbits/s speed=0.0177x elapsed=0:03:22.90    \nframe=  110 fps=0.5 q=36.6 size=     768KiB time=00:00:03.60 bitrate=1747.7kbits/s speed=0.0177x elapsed=0:03:23.43    \nframe=  111 fps=0.5 q=36.8 size=     768KiB time=00:00:03.63 bitrate=1731.7kbits/s speed=0.0178x elapsed=0:03:23.97    \nframe=  111 fps=0.5 q=36.8 size=     768KiB time=00:00:03.63 bitrate=1731.7kbits/s speed=0.0178x elapsed=0:03:24.48    \nframe=  111 fps=0.5 q=36.8 size=     768KiB time=00:00:03.63 bitrate=1731.7kbits/s speed=0.0177x elapsed=0:03:25.00    \nframe=  112 fps=0.5 q=32.5 size=     768KiB time=00:00:03.66 bitrate=1715.9kbits/s speed=0.0178x elapsed=0:03:25.52    \nframe=  112 fps=0.5 q=32.5 size=     768KiB time=00:00:03.66 bitrate=1715.9kbits/s speed=0.0178x elapsed=0:03:26.05    \nframe=  112 fps=0.5 q=32.5 size=     768KiB time=00:00:03.66 bitrate=1715.9kbits/s speed=0.0177x elapsed=0:03:26.57    \nframe=  112 fps=0.5 q=32.5 size=     768KiB time=00:00:03.66 bitrate=1715.9kbits/s speed=0.0177x elapsed=0:03:27.09    \nframe=  112 fps=0.5 q=32.5 size=     768KiB time=00:00:03.66 bitrate=1715.9kbits/s speed=0.0177x elapsed=0:03:27.61    \nframe=  112 fps=0.5 q=32.5 size=     768KiB time=00:00:03.66 bitrate=1715.9kbits/s speed=0.0176x elapsed=0:03:28.14    \nframe=  113 fps=0.5 q=34.5 size=     768KiB time=00:00:03.70 bitrate=1700.5kbits/s speed=0.0177x elapsed=0:03:28.67    \nframe=  113 fps=0.5 q=34.5 size=     768KiB time=00:00:03.70 bitrate=1700.5kbits/s speed=0.0177x elapsed=0:03:29.20    \nframe=  113 fps=0.5 q=34.5 size=     768KiB time=00:00:03.70 bitrate=1700.5kbits/s speed=0.0176x elapsed=0:03:29.74    \nframe=  113 fps=0.5 q=34.5 size=     768KiB time=00:00:03.70 bitrate=1700.5kbits/s speed=0.0176x elapsed=0:03:30.25    \nframe=  114 fps=0.5 q=36.9 size=     768KiB time=00:00:03.73 bitrate=1685.3kbits/s speed=0.0177x elapsed=0:03:30.77    \nframe=  114 fps=0.5 q=36.9 size=     768KiB time=00:00:03.73 bitrate=1685.3kbits/s speed=0.0177x elapsed=0:03:31.28    \nframe=  114 fps=0.5 q=36.9 size=     768KiB time=00:00:03.73 bitrate=1685.3kbits/s speed=0.0176x elapsed=0:03:31.81    \nframe=  114 fps=0.5 q=36.9 size=     768KiB time=00:00:03.73 bitrate=1685.3kbits/s speed=0.0176x elapsed=0:03:32.33    \nframe=  116 fps=0.5 q=32.5 size=     768KiB time=00:00:03.80 bitrate=1655.7kbits/s speed=0.0179x elapsed=0:03:32.84    \nframe=  116 fps=0.5 q=32.5 size=     768KiB time=00:00:03.80 bitrate=1655.7kbits/s speed=0.0178x elapsed=0:03:33.36    \nframe=  117 fps=0.5 q=34.5 size=     768KiB time=00:00:03.83 bitrate=1641.3kbits/s speed=0.0179x elapsed=0:03:33.88    \nframe=  117 fps=0.5 q=34.5 size=     768KiB time=00:00:03.83 bitrate=1641.3kbits/s speed=0.0179x elapsed=0:03:34.39    \nframe=  118 fps=0.5 q=36.9 size=     768KiB time=00:00:03.86 bitrate=1627.2kbits/s speed=0.018x elapsed=0:03:34.91    \nframe=  118 fps=0.5 q=36.9 size=     768KiB time=00:00:03.86 bitrate=1627.2kbits/s speed=0.0179x elapsed=0:03:35.44    \nframe=  118 fps=0.5 q=36.9 size=     768KiB time=00:00:03.86 bitrate=1627.2kbits/s speed=0.0179x elapsed=0:03:36.00    \nframe=  119 fps=0.5 q=37.0 size=     768KiB time=00:00:03.90 bitrate=1613.3kbits/s speed=0.018x elapsed=0:03:36.52    \nframe=  119 fps=0.5 q=37.0 size=     768KiB time=00:00:03.90 bitrate=1613.3kbits/s speed=0.018x elapsed=0:03:37.04    \nframe=  120 fps=0.6 q=32.7 size=     768KiB time=00:00:03.93 bitrate=1599.6kbits/s speed=0.0181x elapsed=0:03:37.55    \nframe=  120 fps=0.6 q=32.7 size=     768KiB time=00:00:03.93 bitrate=1599.6kbits/s speed=0.018x elapsed=0:03:38.06    \nframe=  120 fps=0.5 q=32.7 size=     768KiB time=00:00:03.93 bitrate=1599.6kbits/s speed=0.018x elapsed=0:03:38.59    \nframe=  120 fps=0.5 q=32.7 size=     768KiB time=00:00:03.93 bitrate=1599.6kbits/s speed=0.018x elapsed=0:03:39.11    \nframe=  120 fps=0.5 q=32.7 size=     768KiB time=00:00:03.93 bitrate=1599.6kbits/s speed=0.0179x elapsed=0:03:39.64    \nframe=  120 fps=0.5 q=32.7 size=     768KiB time=00:00:03.93 bitrate=1599.6kbits/s speed=0.0179x elapsed=0:03:40.21    \nframe=  121 fps=0.5 q=34.9 size=     768KiB time=00:00:03.96 bitrate=1586.2kbits/s speed=0.018x elapsed=0:03:40.82    \nframe=  121 fps=0.5 q=34.9 size=     768KiB time=00:00:03.96 bitrate=1586.2kbits/s speed=0.0179x elapsed=0:03:41.43    \nframe=  121 fps=0.5 q=34.9 size=     768KiB time=00:00:03.96 bitrate=1586.2kbits/s speed=0.0179x elapsed=0:03:42.05    \nframe=  121 fps=0.5 q=34.9 size=     768KiB time=00:00:03.96 bitrate=1586.2kbits/s speed=0.0178x elapsed=0:03:42.63    \nframe=  121 fps=0.5 q=34.9 size=     768KiB time=00:00:03.96 bitrate=1586.2kbits/s speed=0.0178x elapsed=0:03:43.21    \nframe=  121 fps=0.5 q=34.9 size=     768KiB time=00:00:03.96 bitrate=1586.2kbits/s speed=0.0177x elapsed=0:03:43.77    \nframe=  121 fps=0.5 q=34.9 size=     768KiB time=00:00:03.96 bitrate=1586.2kbits/s speed=0.0177x elapsed=0:03:44.35    \nframe=  121 fps=0.5 q=34.9 size=     768KiB time=00:00:03.96 bitrate=1586.2kbits/s speed=0.0176x elapsed=0:03:44.96    \nframe=  121 fps=0.5 q=34.9 size=     768KiB time=00:00:03.96 bitrate=1586.2kbits/s speed=0.0176x elapsed=0:03:45.54    \nframe=  121 fps=0.5 q=34.9 size=     768KiB time=00:00:03.96 bitrate=1586.2kbits/s speed=0.0175x elapsed=0:03:46.10    \nframe=  121 fps=0.5 q=34.9 size=     768KiB time=00:00:03.96 bitrate=1586.2kbits/s speed=0.0175x elapsed=0:03:46.71    \nframe=  121 fps=0.5 q=34.9 size=     768KiB time=00:00:03.96 bitrate=1586.2kbits/s speed=0.0175x elapsed=0:03:47.23    \nframe=  121 fps=0.5 q=34.9 size=     768KiB time=00:00:03.96 bitrate=1586.2kbits/s speed=0.0174x elapsed=0:03:47.77    \nframe=  122 fps=0.5 q=37.0 size=     768KiB time=00:00:04.00 bitrate=1573.0kbits/s speed=0.0175x elapsed=0:03:48.28    \nframe=  122 fps=0.5 q=37.0 size=     768KiB time=00:00:04.00 bitrate=1573.0kbits/s speed=0.0175x elapsed=0:03:48.81    \nframe=  122 fps=0.5 q=37.0 size=     768KiB time=00:00:04.00 bitrate=1573.0kbits/s speed=0.0174x elapsed=0:03:49.38    \nframe=  123 fps=0.5 q=37.1 size=     768KiB time=00:00:04.03 bitrate=1560.0kbits/s speed=0.0175x elapsed=0:03:49.93    \nframe=  123 fps=0.5 q=37.1 size=     768KiB time=00:00:04.03 bitrate=1560.0kbits/s speed=0.0175x elapsed=0:03:50.46    \nframe=  124 fps=0.5 q=32.6 size=     768KiB time=00:00:04.06 bitrate=1547.2kbits/s speed=0.0176x elapsed=0:03:50.98    \nframe=  124 fps=0.5 q=32.6 size=     768KiB time=00:00:04.06 bitrate=1547.2kbits/s speed=0.0176x elapsed=0:03:51.52    \nframe=  124 fps=0.5 q=32.6 size=     768KiB time=00:00:04.06 bitrate=1547.2kbits/s speed=0.0175x elapsed=0:03:52.04    \nframe=  125 fps=0.5 q=34.7 size=    1024KiB time=00:00:04.10 bitrate=2046.1kbits/s speed=0.0176x elapsed=0:03:52.54    \nframe=  125 fps=0.5 q=34.7 size=    1024KiB time=00:00:04.10 bitrate=2046.1kbits/s speed=0.0176x elapsed=0:03:53.08    \nframe=  126 fps=0.5 q=36.8 size=    1024KiB time=00:00:04.13 bitrate=2029.6kbits/s speed=0.0177x elapsed=0:03:53.59    \nframe=  126 fps=0.5 q=36.8 size=    1024KiB time=00:00:04.13 bitrate=2029.6kbits/s speed=0.0177x elapsed=0:03:54.11    \nframe=  126 fps=0.5 q=36.8 size=    1024KiB time=00:00:04.13 bitrate=2029.6kbits/s speed=0.0176x elapsed=0:03:54.68    \nframe=  127 fps=0.5 q=36.8 size=    1024KiB time=00:00:04.16 bitrate=2013.4kbits/s speed=0.0177x elapsed=0:03:55.18    \nframe=  128 fps=0.5 q=32.7 size=    1024KiB time=00:00:04.20 bitrate=1997.4kbits/s speed=0.0178x elapsed=0:03:55.71    \nframe=  129 fps=0.5 q=34.6 size=    1024KiB time=00:00:04.23 bitrate=1981.6kbits/s speed=0.0179x elapsed=0:03:56.24    \nframe=  130 fps=0.5 q=36.9 size=    1024KiB time=00:00:04.26 bitrate=1966.2kbits/s speed=0.018x elapsed=0:03:56.75    \nframe=  130 fps=0.5 q=36.9 size=    1024KiB time=00:00:04.26 bitrate=1966.2kbits/s speed=0.018x elapsed=0:03:57.27    \nframe=  131 fps=0.6 q=37.0 size=    1024KiB time=00:00:04.30 bitrate=1950.9kbits/s speed=0.0181x elapsed=0:03:57.84    \nframe=  131 fps=0.5 q=37.0 size=    1024KiB time=00:00:04.30 bitrate=1950.9kbits/s speed=0.018x elapsed=0:03:58.40    \nframe=  131 fps=0.5 q=37.0 size=    1024KiB time=00:00:04.30 bitrate=1950.9kbits/s speed=0.018x elapsed=0:03:58.90    \nframe=  131 fps=0.5 q=37.0 size=    1024KiB time=00:00:04.30 bitrate=1950.9kbits/s speed=0.018x elapsed=0:03:59.43    \nframe=  131 fps=0.5 q=37.0 size=    1024KiB time=00:00:04.30 bitrate=1950.9kbits/s speed=0.0179x elapsed=0:03:59.98    \nframe=  131 fps=0.5 q=37.0 size=    1024KiB time=00:00:04.30 bitrate=1950.9kbits/s speed=0.0179x elapsed=0:04:00.51    \nframe=  131 fps=0.5 q=37.0 size=    1024KiB time=00:00:04.30 bitrate=1950.9kbits/s speed=0.0178x elapsed=0:04:01.03    \nframe=  131 fps=0.5 q=37.0 size=    1024KiB time=00:00:04.30 bitrate=1950.9kbits/s speed=0.0178x elapsed=0:04:01.59    \nframe=  132 fps=0.5 q=33.7 size=    1024KiB time=00:00:04.33 bitrate=1935.9kbits/s speed=0.0179x elapsed=0:04:02.12    \nframe=  132 fps=0.5 q=33.7 size=    1024KiB time=00:00:04.33 bitrate=1935.9kbits/s speed=0.0179x elapsed=0:04:02.64    \nframe=  132 fps=0.5 q=33.7 size=    1024KiB time=00:00:04.33 bitrate=1935.9kbits/s speed=0.0178x elapsed=0:04:03.15    \nframe=  133 fps=0.5 q=34.7 size=    1024KiB time=00:00:04.36 bitrate=1921.1kbits/s speed=0.0179x elapsed=0:04:03.69    \nframe=  134 fps=0.5 q=36.8 size=    1024KiB time=00:00:04.40 bitrate=1906.6kbits/s speed=0.018x elapsed=0:04:04.21    \nframe=  134 fps=0.5 q=36.8 size=    1024KiB time=00:00:04.40 bitrate=1906.6kbits/s speed=0.018x elapsed=0:04:04.74    \nframe=  134 fps=0.5 q=36.8 size=    1024KiB time=00:00:04.40 bitrate=1906.6kbits/s speed=0.0179x elapsed=0:04:05.29    \nframe=  134 fps=0.5 q=36.8 size=    1024KiB time=00:00:04.40 bitrate=1906.6kbits/s speed=0.0179x elapsed=0:04:05.84    \nframe=  134 fps=0.5 q=36.8 size=    1024KiB time=00:00:04.40 bitrate=1906.6kbits/s speed=0.0179x elapsed=0:04:06.36    \nframe=  135 fps=0.5 q=36.6 size=    1024KiB time=00:00:04.43 bitrate=1892.2kbits/s speed=0.018x elapsed=0:04:06.89    \nframe=  135 fps=0.5 q=36.6 size=    1024KiB time=00:00:04.43 bitrate=1892.2kbits/s speed=0.0179x elapsed=0:04:07.44    \nframe=  135 fps=0.5 q=36.6 size=    1024KiB time=00:00:04.43 bitrate=1892.2kbits/s speed=0.0179x elapsed=0:04:07.96    \nframe=  135 fps=0.5 q=36.6 size=    1024KiB time=00:00:04.43 bitrate=1892.2kbits/s speed=0.0178x elapsed=0:04:08.51    \nframe=  135 fps=0.5 q=36.6 size=    1024KiB time=00:00:04.43 bitrate=1892.2kbits/s speed=0.0178x elapsed=0:04:09.07    \nframe=  135 fps=0.5 q=36.6 size=    1024KiB time=00:00:04.43 bitrate=1892.2kbits/s speed=0.0178x elapsed=0:04:09.60    \nframe=  135 fps=0.5 q=36.6 size=    1024KiB time=00:00:04.43 bitrate=1892.2kbits/s speed=0.0177x elapsed=0:04:10.13    \nframe=  135 fps=0.5 q=36.6 size=    1024KiB time=00:00:04.43 bitrate=1892.2kbits/s speed=0.0177x elapsed=0:04:10.66    \nframe=  136 fps=0.5 q=31.4 size=    1024KiB time=00:00:04.46 bitrate=1878.1kbits/s speed=0.0178x elapsed=0:04:11.18    \nframe=  136 fps=0.5 q=31.4 size=    1024KiB time=00:00:04.46 bitrate=1878.1kbits/s speed=0.0177x elapsed=0:04:11.69    \nframe=  136 fps=0.5 q=31.4 size=    1024KiB time=00:00:04.46 bitrate=1878.1kbits/s speed=0.0177x elapsed=0:04:12.21    \nframe=  136 fps=0.5 q=31.4 size=    1024KiB time=00:00:04.46 bitrate=1878.1kbits/s speed=0.0177x elapsed=0:04:12.76    \nframe=  136 fps=0.5 q=31.4 size=    1024KiB time=00:00:04.46 bitrate=1878.1kbits/s speed=0.0176x elapsed=0:04:13.26    \nframe=  137 fps=0.5 q=34.2 size=    1024KiB time=00:00:04.50 bitrate=1864.2kbits/s speed=0.0177x elapsed=0:04:13.79    \nframe=  137 fps=0.5 q=34.2 size=    1024KiB time=00:00:04.50 bitrate=1864.2kbits/s speed=0.0177x elapsed=0:04:14.29    \nframe=  137 fps=0.5 q=34.2 size=    1024KiB time=00:00:04.50 bitrate=1864.2kbits/s speed=0.0177x elapsed=0:04:14.81    \nframe=  137 fps=0.5 q=34.2 size=    1024KiB time=00:00:04.50 bitrate=1864.2kbits/s speed=0.0176x elapsed=0:04:15.33    \nframe=  137 fps=0.5 q=34.2 size=    1024KiB time=00:00:04.50 bitrate=1864.2kbits/s speed=0.0176x elapsed=0:04:15.85    \nframe=  137 fps=0.5 q=34.2 size=    1024KiB time=00:00:04.50 bitrate=1864.2kbits/s speed=0.0176x elapsed=0:04:16.38    \nframe=  137 fps=0.5 q=34.2 size=    1024KiB time=00:00:04.50 bitrate=1864.2kbits/s speed=0.0175x elapsed=0:04:16.91    \nframe=  137 fps=0.5 q=34.2 size=    1024KiB time=00:00:04.50 bitrate=1864.2kbits/s speed=0.0175x elapsed=0:04:17.42    \nframe=  138 fps=0.5 q=34.3 size=    1024KiB time=00:00:04.53 bitrate=1850.5kbits/s speed=0.0176x elapsed=0:04:17.95    \nframe=  138 fps=0.5 q=34.3 size=    1024KiB time=00:00:04.53 bitrate=1850.5kbits/s speed=0.0175x elapsed=0:04:18.48    \nframe=  138 fps=0.5 q=34.3 size=    1024KiB time=00:00:04.53 bitrate=1850.5kbits/s speed=0.0175x elapsed=0:04:19.01    \nframe=  138 fps=0.5 q=34.3 size=    1024KiB time=00:00:04.53 bitrate=1850.5kbits/s speed=0.0175x elapsed=0:04:19.53    \nframe=  138 fps=0.5 q=34.3 size=    1024KiB time=00:00:04.53 bitrate=1850.5kbits/s speed=0.0174x elapsed=0:04:20.07    \nframe=  138 fps=0.5 q=34.3 size=    1024KiB time=00:00:04.53 bitrate=1850.5kbits/s speed=0.0174x elapsed=0:04:20.64    \nframe=  138 fps=0.5 q=34.3 size=    1024KiB time=00:00:04.53 bitrate=1850.5kbits/s speed=0.0174x elapsed=0:04:21.18    \nframe=  139 fps=0.5 q=36.0 size=    1024KiB time=00:00:04.56 bitrate=1837.0kbits/s speed=0.0174x elapsed=0:04:21.70    \nframe=  139 fps=0.5 q=36.0 size=    1024KiB time=00:00:04.56 bitrate=1837.0kbits/s speed=0.0174x elapsed=0:04:22.20    \nframe=  139 fps=0.5 q=36.0 size=    1024KiB time=00:00:04.56 bitrate=1837.0kbits/s speed=0.0174x elapsed=0:04:22.73    \nframe=  139 fps=0.5 q=36.0 size=    1024KiB time=00:00:04.56 bitrate=1837.0kbits/s speed=0.0173x elapsed=0:04:23.27    \nframe=  140 fps=0.5 q=37.3 size=    1024KiB time=00:00:04.60 bitrate=1823.7kbits/s speed=0.0174x elapsed=0:04:23.80    \nframe=  140 fps=0.5 q=37.3 size=    1024KiB time=00:00:04.60 bitrate=1823.7kbits/s speed=0.0174x elapsed=0:04:24.32    \nframe=  140 fps=0.5 q=37.3 size=    1024KiB time=00:00:04.60 bitrate=1823.7kbits/s speed=0.0174x elapsed=0:04:24.83    \nframe=  140 fps=0.5 q=37.3 size=    1024KiB time=00:00:04.60 bitrate=1823.7kbits/s speed=0.0173x elapsed=0:04:25.36    \nframe=  140 fps=0.5 q=37.3 size=    1024KiB time=00:00:04.60 bitrate=1823.7kbits/s speed=0.0173x elapsed=0:04:25.88    \nframe=  140 fps=0.5 q=37.3 size=    1024KiB time=00:00:04.60 bitrate=1823.7kbits/s speed=0.0173x elapsed=0:04:26.40    \nframe=  140 fps=0.5 q=37.3 size=    1024KiB time=00:00:04.60 bitrate=1823.7kbits/s speed=0.0172x elapsed=0:04:26.92    \nframe=  140 fps=0.5 q=37.3 size=    1024KiB time=00:00:04.60 bitrate=1823.7kbits/s speed=0.0172x elapsed=0:04:27.44    \nframe=  140 fps=0.5 q=37.3 size=    1024KiB time=00:00:04.60 bitrate=1823.7kbits/s speed=0.0172x elapsed=0:04:27.95    \nframe=  140 fps=0.5 q=37.3 size=    1024KiB time=00:00:04.60 bitrate=1823.7kbits/s speed=0.0171x elapsed=0:04:28.48    \nframe=  140 fps=0.5 q=37.3 size=    1024KiB time=00:00:04.60 bitrate=1823.7kbits/s speed=0.0171x elapsed=0:04:29.02    \nframe=  141 fps=0.5 q=37.0 size=    1024KiB time=00:00:04.63 bitrate=1810.6kbits/s speed=0.0172x elapsed=0:04:29.54    \nframe=  141 fps=0.5 q=37.0 size=    1024KiB time=00:00:04.63 bitrate=1810.6kbits/s speed=0.0172x elapsed=0:04:30.07    \nframe=  141 fps=0.5 q=37.0 size=    1024KiB time=00:00:04.63 bitrate=1810.6kbits/s speed=0.0171x elapsed=0:04:30.58    \nframe=  141 fps=0.5 q=37.0 size=    1024KiB time=00:00:04.63 bitrate=1810.6kbits/s speed=0.0171x elapsed=0:04:31.10    \nframe=  142 fps=0.5 q=32.3 size=    1024KiB time=00:00:04.66 bitrate=1797.6kbits/s speed=0.0172x elapsed=0:04:31.65    \nframe=  142 fps=0.5 q=32.3 size=    1024KiB time=00:00:04.66 bitrate=1797.6kbits/s speed=0.0171x elapsed=0:04:32.21    \nframe=  142 fps=0.5 q=32.3 size=    1024KiB time=00:00:04.66 bitrate=1797.6kbits/s speed=0.0171x elapsed=0:04:32.80    \nframe=  142 fps=0.5 q=32.3 size=    1024KiB time=00:00:04.66 bitrate=1797.6kbits/s speed=0.0171x elapsed=0:04:33.32    \nframe=  142 fps=0.5 q=32.3 size=    1024KiB time=00:00:04.66 bitrate=1797.6kbits/s speed=0.017x elapsed=0:04:33.85    \nframe=  143 fps=0.5 q=32.1 size=    1024KiB time=00:00:04.70 bitrate=1784.9kbits/s speed=0.0171x elapsed=0:04:34.39    \nframe=  143 fps=0.5 q=32.1 size=    1024KiB time=00:00:04.70 bitrate=1784.9kbits/s speed=0.0171x elapsed=0:04:34.93    \nframe=  143 fps=0.5 q=32.1 size=    1024KiB time=00:00:04.70 bitrate=1784.9kbits/s speed=0.0171x elapsed=0:04:35.45    \nframe=  143 fps=0.5 q=32.1 size=    1024KiB time=00:00:04.70 bitrate=1784.9kbits/s speed=0.017x elapsed=0:04:35.99    \nframe=  143 fps=0.5 q=32.1 size=    1024KiB time=00:00:04.70 bitrate=1784.9kbits/s speed=0.017x elapsed=0:04:36.53    \nframe=  143 fps=0.5 q=32.1 size=    1024KiB time=00:00:04.70 bitrate=1784.9kbits/s speed=0.017x elapsed=0:04:37.08    \nframe=  143 fps=0.5 q=32.1 size=    1024KiB time=00:00:04.70 bitrate=1784.9kbits/s speed=0.0169x elapsed=0:04:37.60    \nframe=  143 fps=0.5 q=32.1 size=    1024KiB time=00:00:04.70 bitrate=1784.9kbits/s speed=0.0169x elapsed=0:04:38.16    \nframe=  143 fps=0.5 q=32.1 size=    1024KiB time=00:00:04.70 bitrate=1784.9kbits/s speed=0.0169x elapsed=0:04:38.74    \nframe=  144 fps=0.5 q=32.5 size=    1024KiB time=00:00:04.73 bitrate=1772.3kbits/s speed=0.0169x elapsed=0:04:39.28    \nframe=  144 fps=0.5 q=32.5 size=    1024KiB time=00:00:04.73 bitrate=1772.3kbits/s speed=0.0169x elapsed=0:04:39.85    \nframe=  144 fps=0.5 q=32.5 size=    1024KiB time=00:00:04.73 bitrate=1772.3kbits/s speed=0.0169x elapsed=0:04:40.37    \nframe=  144 fps=0.5 q=32.5 size=    1024KiB time=00:00:04.73 bitrate=1772.3kbits/s speed=0.0169x elapsed=0:04:40.89    \nframe=  145 fps=0.5 q=33.8 size=    1024KiB time=00:00:04.76 bitrate=1759.9kbits/s speed=0.0169x elapsed=0:04:41.41    \nframe=  145 fps=0.5 q=33.8 size=    1024KiB time=00:00:04.76 bitrate=1759.9kbits/s speed=0.0169x elapsed=0:04:41.92    \nframe=  145 fps=0.5 q=33.8 size=    1024KiB time=00:00:04.76 bitrate=1759.9kbits/s speed=0.0169x elapsed=0:04:42.46    \nframe=  145 fps=0.5 q=33.8 size=    1024KiB time=00:00:04.76 bitrate=1759.9kbits/s speed=0.0168x elapsed=0:04:42.99    \nframe=  145 fps=0.5 q=33.8 size=    1024KiB time=00:00:04.76 bitrate=1759.9kbits/s speed=0.0168x elapsed=0:04:43.54    \nframe=  145 fps=0.5 q=33.8 size=    1024KiB time=00:00:04.76 bitrate=1759.9kbits/s speed=0.0168x elapsed=0:04:44.06    \nframe=  145 fps=0.5 q=33.8 size=    1024KiB time=00:00:04.76 bitrate=1759.9kbits/s speed=0.0167x elapsed=0:04:44.59    \nframe=  146 fps=0.5 q=35.2 size=    1024KiB time=00:00:04.80 bitrate=1747.7kbits/s speed=0.0168x elapsed=0:04:45.11    \nframe=  146 fps=0.5 q=35.2 size=    1024KiB time=00:00:04.80 bitrate=1747.7kbits/s speed=0.0168x elapsed=0:04:45.63    \nframe=  146 fps=0.5 q=35.2 size=    1024KiB time=00:00:04.80 bitrate=1747.7kbits/s speed=0.0168x elapsed=0:04:46.17    \nframe=  146 fps=0.5 q=35.2 size=    1024KiB time=00:00:04.80 bitrate=1747.7kbits/s speed=0.0167x elapsed=0:04:46.70    \nframe=  147 fps=0.5 q=35.1 size=    1024KiB time=00:00:04.83 bitrate=1735.6kbits/s speed=0.0168x elapsed=0:04:47.23    \nframe=  147 fps=0.5 q=35.1 size=    1024KiB time=00:00:04.83 bitrate=1735.6kbits/s speed=0.0168x elapsed=0:04:47.75    \nframe=  147 fps=0.5 q=35.1 size=    1024KiB time=00:00:04.83 bitrate=1735.6kbits/s speed=0.0168x elapsed=0:04:48.27    \nframe=  148 fps=0.5 q=32.4 size=    1024KiB time=00:00:04.86 bitrate=1723.8kbits/s speed=0.0169x elapsed=0:04:48.79    \nframe=  148 fps=0.5 q=32.4 size=    1024KiB time=00:00:04.86 bitrate=1723.8kbits/s speed=0.0168x elapsed=0:04:49.30    \nframe=  148 fps=0.5 q=32.4 size=    1024KiB time=00:00:04.86 bitrate=1723.8kbits/s speed=0.0168x elapsed=0:04:49.85    \nframe=  149 fps=0.5 q=33.4 size=    1024KiB time=00:00:04.90 bitrate=1712.0kbits/s speed=0.0169x elapsed=0:04:50.36    \nframe=  149 fps=0.5 q=33.4 size=    1024KiB time=00:00:04.90 bitrate=1712.0kbits/s speed=0.0168x elapsed=0:04:50.87    \nframe=  149 fps=0.5 q=33.4 size=    1024KiB time=00:00:04.90 bitrate=1712.0kbits/s speed=0.0168x elapsed=0:04:51.39    \nframe=  149 fps=0.5 q=33.4 size=    1024KiB time=00:00:04.90 bitrate=1712.0kbits/s speed=0.0168x elapsed=0:04:51.90    \nframe=  149 fps=0.5 q=33.4 size=    1024KiB time=00:00:04.90 bitrate=1712.0kbits/s speed=0.0168x elapsed=0:04:52.43    \n[mp4 @ 000002038b2eaa40] Starting second pass: moving the moov atom to the beginning of the file\n[out#0/mp4 @ 000002038d2a3c80] video:1206KiB audio:0KiB subtitle:0KiB other streams:0KiB global headers:2KiB muxing overhead: 0.424019%\nframe=  150 fps=0.5 q=34.9 Lsize=    1211KiB time=00:00:04.93 bitrate=2011.0kbits/s speed=0.0169x elapsed=0:04:52.43    \nx265 [info]: frame I:      3, Avg QP:36.43  kb/s: 1084.72 \nx265 [info]: frame P:     44, Avg QP:32.55  kb/s: 3033.34 \nx265 [info]: frame B:    103, Avg QP:35.72  kb/s: 1548.53 \nx265 [info]: Weighted P-Frames: Y:0.0% UV:0.0%\n\nencoded 150 frames in 292.18s (0.51 fps), 1974.80 kb/s, Avg QP:34.81\n",
  "seconds": 293.09649658203125,
  "probe_out": {}
}